<svg id="Layer_1" data-name="Layer 1" xmlns="http://www.w3.org/2000/svg" viewBox="0 0 90.71 62.36"><defs><style>.cls-1{fill:#f80000;}</style></defs><path class="cls-1" d="M9.06,54.07V46l.89.88H7.29V45.22h3.82v8.85Z"/><path class="cls-1" d="M16.44,54.22a3.56,3.56,0,0,1-1.94-.54,3.88,3.88,0,0,1-1.35-1.55,6.43,6.43,0,0,1,0-5A3.84,3.84,0,0,1,14.5,45.6a3.85,3.85,0,0,1,3.9,0,3.7,3.7,0,0,1,1.35,1.56,6.43,6.43,0,0,1,0,5,3.73,3.73,0,0,1-1.35,1.55A3.58,3.58,0,0,1,16.44,54.22Zm0-1.72a1.44,1.44,0,0,0,.91-.3,1.88,1.88,0,0,0,.6-.93A5.89,5.89,0,0,0,18,48a1.88,1.88,0,0,0-.6-.93,1.5,1.5,0,0,0-.91-.29,1.47,1.47,0,0,0-.88.29,2,2,0,0,0-.62.93,5.89,5.89,0,0,0,0,3.26,2,2,0,0,0,.62.93A1.42,1.42,0,0,0,16.44,52.5Z"/><path class="cls-1" d="M25,54.22a3.52,3.52,0,0,1-1.94-.54,3.82,3.82,0,0,1-1.36-1.55,6.43,6.43,0,0,1,0-5,3.79,3.79,0,0,1,1.36-1.56A3.59,3.59,0,0,1,25,45.07,3.65,3.65,0,0,1,27,45.6a3.7,3.7,0,0,1,1.35,1.56,6.43,6.43,0,0,1,0,5A3.73,3.73,0,0,1,27,53.68,3.57,3.57,0,0,1,25,54.22Zm0-1.72a1.44,1.44,0,0,0,.9-.3,2,2,0,0,0,.61-.93,6.15,6.15,0,0,0,0-3.26,2,2,0,0,0-.61-.93,1.53,1.53,0,0,0-1.79,0,2,2,0,0,0-.62.93,5.89,5.89,0,0,0,0,3.26,2,2,0,0,0,.62.93A1.43,1.43,0,0,0,25,52.5Z"/><path class="cls-1" d="M33.61,54.22a3.54,3.54,0,0,1-1.94-.54,3.82,3.82,0,0,1-1.36-1.55,6.55,6.55,0,0,1,0-5,3.79,3.79,0,0,1,1.36-1.56,3.83,3.83,0,0,1,3.89,0,3.7,3.7,0,0,1,1.35,1.56,6.43,6.43,0,0,1,0,5,3.73,3.73,0,0,1-1.35,1.55A3.57,3.57,0,0,1,33.61,54.22Zm0-1.72a1.44,1.44,0,0,0,.9-.3,2,2,0,0,0,.61-.93,6.15,6.15,0,0,0,0-3.26,2,2,0,0,0-.61-.93,1.53,1.53,0,0,0-1.79,0,2,2,0,0,0-.62.93,5.89,5.89,0,0,0,0,3.26,2,2,0,0,0,.62.93A1.43,1.43,0,0,0,33.61,52.5Z"/><path class="cls-1" d="M42.19,54.22a3.54,3.54,0,0,1-1.94-.54,3.73,3.73,0,0,1-1.35-1.55,6.43,6.43,0,0,1,0-5,3.7,3.7,0,0,1,1.35-1.56,3.83,3.83,0,0,1,3.89,0,3.7,3.7,0,0,1,1.35,1.56,6.43,6.43,0,0,1,0,5,3.73,3.73,0,0,1-1.35,1.55A3.57,3.57,0,0,1,42.19,54.22Zm0-1.72a1.44,1.44,0,0,0,.9-.3,2,2,0,0,0,.61-.93,6.15,6.15,0,0,0,0-3.26,2,2,0,0,0-.61-.93,1.53,1.53,0,0,0-1.79,0,2.05,2.05,0,0,0-.62.93,6.15,6.15,0,0,0,0,3.26,2.05,2.05,0,0,0,.62.93A1.43,1.43,0,0,0,42.19,52.5Z"/><path class="cls-1" d="M7.35,58.77a1.79,1.79,0,0,1-.57-.08,1.39,1.39,0,0,1-.44-.2l.2-.43a1.42,1.42,0,0,0,.37.18,1.31,1.31,0,0,0,.44.07,1,1,0,0,0,.27,0,.35.35,0,0,0,.16-.09.23.23,0,0,0,0-.14.19.19,0,0,0-.07-.16.69.69,0,0,0-.21-.09l-.28-.07L7,57.65a1,1,0,0,1-.28-.13.53.53,0,0,1-.21-.21A.61.61,0,0,1,6.4,57a.63.63,0,0,1,.11-.38.74.74,0,0,1,.34-.28,1.4,1.4,0,0,1,.58-.1,1.8,1.8,0,0,1,.46.05,1.38,1.38,0,0,1,.39.16l-.17.43a1.7,1.7,0,0,0-.35-.14,1.32,1.32,0,0,0-.33,0,.64.64,0,0,0-.27,0,.28.28,0,0,0-.15.1A.19.19,0,0,0,7,57a.17.17,0,0,0,.08.16.53.53,0,0,0,.2.09l.28.07.31.08a1.43,1.43,0,0,1,.28.13.55.55,0,0,1,.2.2.63.63,0,0,1,.08.32.73.73,0,0,1-.11.38.91.91,0,0,1-.35.28A1.4,1.4,0,0,1,7.35,58.77Z"/><path class="cls-1" d="M9.35,58.27h1.34v.46H8.78V56.27h1.86v.45H9.35Zm0-1h1.18v.44H9.31Z"/><path class="cls-1" d="M11.14,58.73V56.27h1.07a1.42,1.42,0,0,1,.57.1,1,1,0,0,1,.37.31.93.93,0,0,1,.13.48.89.89,0,0,1-.13.47.81.81,0,0,1-.37.31,1.41,1.41,0,0,1-.57.11h-.76l.27-.26v.94Zm.58-.87-.27-.27h.73a.57.57,0,0,0,.39-.12.37.37,0,0,0,.13-.31.39.39,0,0,0-.13-.32.62.62,0,0,0-.39-.11h-.73l.27-.27Z"/><path class="cls-1" d="M14.77,58.77a1.08,1.08,0,0,1-.82-.29,1.1,1.1,0,0,1-.3-.84V56.27h.57v1.36a.7.7,0,0,0,.15.5.58.58,0,0,0,.8,0,.7.7,0,0,0,.15-.5V56.27h.56v1.37a1.1,1.1,0,0,1-.3.84A1.09,1.09,0,0,1,14.77,58.77Z"/><path class="cls-1" d="M16.44,58.73V56.27H17v2h1.23v.46Z"/><path class="cls-1" d="M19.63,58.77a1.1,1.1,0,0,1-.82-.29,1.14,1.14,0,0,1-.29-.84V56.27h.57v1.36a.75.75,0,0,0,.14.5.51.51,0,0,0,.41.16.51.51,0,0,0,.4-.16.7.7,0,0,0,.14-.5V56.27h.56v1.37a1,1,0,0,1-1.11,1.13Z"/><path class="cls-1" d="M21.88,58.73h-.57V56.27h.57Zm1.16-1h-1.2v-.48H23Zm0-1.45h.57v2.46H23Z"/><path class="cls-1" d="M25.15,58.73V56.27h1.06a1.39,1.39,0,0,1,.57.1.88.88,0,0,1,.37.31.84.84,0,0,1,.13.48.81.81,0,0,1-.13.47.76.76,0,0,1-.37.31,1.39,1.39,0,0,1-.57.1h-.75l.26-.25v.94Zm.57-.87-.26-.27h.72a.58.58,0,0,0,.4-.12.37.37,0,0,0,.13-.31.39.39,0,0,0-.13-.32.64.64,0,0,0-.4-.11h-.72l.26-.27Zm1,.87-.62-.89h.61l.62.89Z"/><path class="cls-1" d="M27.73,58.73V56.27h.58v2.46Z"/><path class="cls-1" d="M28.89,58.73V56.27h1.2a1.22,1.22,0,0,1,.7.17.56.56,0,0,1,.23.47.58.58,0,0,1-.09.33.56.56,0,0,1-.26.22.79.79,0,0,1-.38.08l.07-.15a1.07,1.07,0,0,1,.41.08.61.61,0,0,1,.27.23.57.57,0,0,1,.11.36.58.58,0,0,1-.25.49,1.26,1.26,0,0,1-.74.18Zm.56-.43h.67a.64.64,0,0,0,.34-.07.27.27,0,0,0,.11-.23.25.25,0,0,0-.11-.23.63.63,0,0,0-.34-.08h-.71v-.41H30a.56.56,0,0,0,.32-.08.24.24,0,0,0,.11-.22.24.24,0,0,0-.11-.21A.56.56,0,0,0,30,56.7h-.57Z"/><path class="cls-1" d="M32.67,58.77a1.11,1.11,0,0,1-.82-.29,1.14,1.14,0,0,1-.29-.84V56.27h.57v1.36a.7.7,0,0,0,.15.5.58.58,0,0,0,.8,0,.7.7,0,0,0,.15-.5V56.27h.56v1.37a1,1,0,0,1-1.12,1.13Z"/><path class="cls-1" d="M35.35,58.73V56.27h1.06a1.39,1.39,0,0,1,.57.1.88.88,0,0,1,.37.31.84.84,0,0,1,.13.48.81.81,0,0,1-.13.47.76.76,0,0,1-.37.31,1.39,1.39,0,0,1-.57.1h-.75l.26-.25v.94Zm.57-.87-.26-.27h.72a.58.58,0,0,0,.4-.12.37.37,0,0,0,.13-.31.39.39,0,0,0-.13-.32.64.64,0,0,0-.4-.11h-.72l.26-.27Zm1,.87-.62-.89h.61l.62.89Z"/><path class="cls-1" d="M39,58.77a1,1,0,0,1-1.12-1.13V56.27h.58v1.36a.7.7,0,0,0,.14.5.51.51,0,0,0,.4.16.51.51,0,0,0,.41-.16.75.75,0,0,0,.14-.5V56.27h.56v1.37a1.1,1.1,0,0,1-.3.84A1.06,1.06,0,0,1,39,58.77Z"/><path class="cls-1" d="M40.71,58.73V56.27h1.06a1.42,1.42,0,0,1,.57.1.88.88,0,0,1,.37.31.84.84,0,0,1,.13.48.81.81,0,0,1-.13.47.76.76,0,0,1-.37.31,1.41,1.41,0,0,1-.57.11H41l.26-.26v.94Zm.57-.87L41,57.59h.72a.6.6,0,0,0,.4-.12.41.41,0,0,0,.13-.31.43.43,0,0,0-.13-.32.66.66,0,0,0-.4-.11H41l.26-.27Z"/><path class="cls-1" d="M43.25,58.73V56.27h.57v2.46Z"/><path class="cls-1" d="M44.08,58.73l1.09-2.46h.56l1.11,2.46h-.6l-.9-2.17h.23l-.91,2.17Zm.55-.53.14-.43h1.28l.15.43Z"/><path class="cls-1" d="M47.67,58.73H47.1V56.27h.57Zm1.16-1H47.62v-.48h1.21Zm0-1.45h.58v2.46h-.58Z"/><path class="cls-1" d="M52.43,42.19v-5h1l2.13,3.52H55l2.08-3.52h1v5H57V38.86h.21l-1.68,2.79H55l-1.7-2.79h.23v3.33Z"/><path class="cls-1" d="M60.38,41.26H63.1v.93H59.24v-5H63v.92H60.38ZM60.3,39.2h2.4v.91H60.3Z"/><path class="cls-1" d="M65.06,42.19v-4h-1.6V37.2h4.35v.94h-1.6v4Z"/><path class="cls-1" d="M69.58,41.26h2.71v.93H68.43v-5H72.2v.92H69.58Zm-.09-2.06h2.4v.91h-2.4Z"/><path class="cls-1" d="M73.21,42.19v-5h2.16a2.93,2.93,0,0,1,1.16.21,1.79,1.79,0,0,1,.75.63,1.92,1.92,0,0,1,0,1.93,1.68,1.68,0,0,1-.75.61,2.93,2.93,0,0,1-1.16.21H73.85l.52-.5v1.9Zm1.16-1.77-.52-.55h1.46a1.18,1.18,0,0,0,.8-.23.78.78,0,0,0,.27-.64.8.8,0,0,0-.27-.64,1.23,1.23,0,0,0-.8-.22H73.85l.52-.55Zm2,1.77-1.25-1.81h1.24l1.25,1.81Z"/><path class="cls-1" d="M77.8,42.19l2.21-5h1.14l2.24,5H82.18l-1.83-4.41h.46L79,42.19Zm1.11-1.07.3-.88h2.58l.3.88Z"/><path class="cls-1" d="M83.91,42.19v-5h1.17v5Z"/><path class="cls-1" d="M53.46,50.74V46.69H51.87v-.94h4.34v.94H54.62v4.05Z"/><path class="cls-1" d="M58,49.82H60.7v.92H56.83v-5h3.78v.93H58Zm-.08-2.06h2.4v.9H57.9Z"/><path class="cls-1" d="M61.62,50.74v-5h2.16a2.84,2.84,0,0,1,1.15.22,1.66,1.66,0,0,1,.75.62,1.75,1.75,0,0,1,.27,1,1.69,1.69,0,0,1-.27,1,1.6,1.6,0,0,1-.75.62,2.85,2.85,0,0,1-1.15.21H62.25l.53-.5v1.89ZM62.78,49l-.53-.55h1.46a1.21,1.21,0,0,0,.8-.23.8.8,0,0,0,.27-.64.78.78,0,0,0-.27-.64,1.21,1.21,0,0,0-.8-.23H62.25l.53-.55Zm2,1.76-1.26-1.81h1.24L66,50.74Z"/><path class="cls-1" d="M66.2,50.74l2.22-5h1.14l2.24,5H70.59l-1.83-4.4h.46l-1.83,4.4Zm1.12-1.07.3-.87H70.2l.29.87Z"/><path class="cls-1" d="M71.83,50.74l2.22-5h1.14l2.23,5H76.21l-1.83-4.4h.46L73,50.74ZM73,49.67l.29-.87h2.58l.3.87Z"/><path class="cls-1" d="M78,50.74v-5h1l2.94,3.6h-.46v-3.6h1.14v5h-1l-2.95-3.59h.47v3.59Z"/><path class="cls-1" d="M52.43,59.3v-5H54.7a3.13,3.13,0,0,1,1.43.31,2.27,2.27,0,0,1,1,.87,2.65,2.65,0,0,1,0,2.63,2.41,2.41,0,0,1-1,.87,3.27,3.27,0,0,1-1.43.31Zm1.16-.94h1a1.91,1.91,0,0,0,.86-.19,1.44,1.44,0,0,0,.58-.54,1.7,1.7,0,0,0,.2-.83,1.63,1.63,0,0,0-.2-.82,1.32,1.32,0,0,0-.58-.54,1.79,1.79,0,0,0-.86-.19h-1Z"/><path class="cls-1" d="M58.32,59.3v-5h1.16v5Z"/><path class="cls-1" d="M63.07,59.38a3,3,0,0,1-1.1-.19,2.44,2.44,0,0,1-.86-.53,2.75,2.75,0,0,1-.57-.82,2.71,2.71,0,0,1-.2-1,2.66,2.66,0,0,1,.2-1,2.5,2.5,0,0,1,.58-.82,2.77,2.77,0,0,1,.87-.54,3.3,3.3,0,0,1,2.29,0,2.39,2.39,0,0,1,.89.64l-.73.69a1.63,1.63,0,0,0-.6-.43,1.78,1.78,0,0,0-.7-.14,1.76,1.76,0,0,0-.66.12,1.49,1.49,0,0,0-.52.33,1.56,1.56,0,0,0-.33.5,1.75,1.75,0,0,0-.12.65,1.69,1.69,0,0,0,.12.64A1.5,1.5,0,0,0,62,58a1.63,1.63,0,0,0,1.17.46,1.93,1.93,0,0,0,.67-.12,2.07,2.07,0,0,0,.63-.37l.65.83a2.73,2.73,0,0,1-1,.47A3.54,3.54,0,0,1,63.07,59.38Zm1-.78V56.73h1v2Z"/><path class="cls-1" d="M66.15,59.3v-5h1.16v5Z"/><path class="cls-1" d="M69.52,59.3v-4H67.93v-.94h4.35v.94h-1.6v4Z"/><path class="cls-1" d="M72,59.3l2.22-5h1.14l2.24,5H76.38l-1.84-4.41H75L73.17,59.3Zm1.12-1.07.29-.88H76l.3.88Z"/><path class="cls-1" d="M78.11,59.3v-5h1.16v4h2.49v.94Z"/><path class="cls-1" d="M67.63,1.14,51.29,12.75l6.24,18.78h20.2L84,12.75Zm9.83,30H57.8l-6.08-18.3L67.63,1.51l15.91,11.3Z"/><path class="cls-1" d="M67.63,2.23,52.42,13l5.78,17.4,0,.08H77l5.78-17.4,0-.08Zm9.26,28h0v0H58.39v0h0L52.65,13.05l15-10.64,15,10.64Z"/><polygon class="cls-1" points="58.39 30.29 76.87 30.29 76.87 30.27 58.39 30.27 58.39 30.29"/><polygon class="cls-1" points="67.7 2.28 67.63 2.23 82.84 13.04 67.7 2.28"/><path class="cls-1" d="M72.61,10.5h0Z"/><path class="cls-1" d="M72.26,10.73h0Z"/><path class="cls-1" d="M71.75,15.27h0Z"/><path class="cls-1" d="M71.91,13.67v0Z"/><path class="cls-1" d="M71.42,16.75v0Z"/><path class="cls-1" d="M70.91,19.67v0Z"/><path class="cls-1" d="M72.05,12.18h0Z"/><path class="cls-1" d="M71.16,18.24h0Z"/><path class="cls-1" d="M70,21.65a1.22,1.22,0,0,0,.75-.73h-.08a1.29,1.29,0,0,1-.91.74,1.55,1.55,0,0,0,.42-.78l-.07,0a1.41,1.41,0,0,1-.53.86l-.18.13h0Z"/><path class="cls-1" d="M65.88,11.27l.35-.33.36.33h.2l.36-.33.35.33h.21l.36-.33.35.33h.21l.35-.33.36.33h.1v.07h0v-.09a1.89,1.89,0,0,0-3.66,0v.09h0v-.07ZM67.61,9.9a1.64,1.64,0,0,1,1.75,1.27L69,10.81l-.46.43-.46-.43-.46.43-.46-.43-.45.43-.46-.43-.38.36A1.64,1.64,0,0,1,67.61,9.9Z"/><path class="cls-1" d="M65.85,11.76a.26.26,0,0,0-.15.21.25.25,0,0,0,.19.23.27.27,0,0,0-.14.22.26.26,0,0,0,.19.23.24.24,0,0,0-.15.21.26.26,0,0,0,.19.23.24.24,0,0,0-.14.21.25.25,0,0,0,.18.23.27.27,0,0,0-.14.21.25.25,0,0,0,.19.23.24.24,0,0,0,0,.45.24.24,0,0,0-.14.21.27.27,0,0,0,.18.23.27.27,0,0,0-.14.21.27.27,0,0,0,.18.23.26.26,0,0,0-.13.21.28.28,0,0,0,.18.24.24.24,0,0,0-.14.21.27.27,0,0,0,.18.23.25.25,0,0,0-.13.21.27.27,0,0,0,.17.23.25.25,0,0,0-.13.21.26.26,0,0,0,.18.23.26.26,0,0,0-.14.21.27.27,0,0,0,.18.23.29.29,0,0,0-.13.22.27.27,0,0,0,.17.23.25.25,0,0,0-.13.21.27.27,0,0,0,.18.23.24.24,0,0,0-.13.21.27.27,0,0,0,.17.23.27.27,0,0,0-.13.21.26.26,0,0,0,.17.23.27.27,0,0,0-.12.21.27.27,0,0,0,.16.24.24.24,0,0,0-.12.21.27.27,0,0,0,.17.23.27.27,0,0,0-.13.21.27.27,0,0,0,.17.23.27.27,0,0,0-.12.21.28.28,0,0,0,.16.23.3.3,0,0,0-.12.21.27.27,0,0,0,.17.24.24.24,0,0,0-.12.21.28.28,0,0,0,.16.23.26.26,0,0,0-.12.21.28.28,0,0,0,.16.23.26.26,0,0,0,0,.45.26.26,0,0,0-.11.2.28.28,0,0,0,.16.24.27.27,0,0,0-.12.2.28.28,0,0,0,.23.26h1.06a.28.28,0,0,0,.22-.26.26.26,0,0,0-.11-.2.28.28,0,0,0,.16-.24.27.27,0,0,0-.12-.2.28.28,0,0,0,.16-.24.26.26,0,0,0-.12-.21.28.28,0,0,0,.16-.23.27.27,0,0,0-.11-.21.28.28,0,0,0,.16-.23.27.27,0,0,0-.12-.21.28.28,0,0,0,.16-.24.27.27,0,0,0-.12-.21.27.27,0,0,0,.17-.23.3.3,0,0,0-.12-.21.28.28,0,0,0,.16-.23.26.26,0,0,0-.12-.21.26.26,0,0,0,.16-.23.24.24,0,0,0-.12-.21.27.27,0,0,0,.17-.24.28.28,0,0,0-.13-.21.26.26,0,0,0,.17-.23.26.26,0,0,0-.12-.21.27.27,0,0,0,.17-.23.27.27,0,0,0-.13-.21.27.27,0,0,0,.17-.23.25.25,0,0,0-.13-.21.27.27,0,0,0,.18-.23.27.27,0,0,0-.14-.22.26.26,0,0,0,.18-.23.27.27,0,0,0-.13-.21.26.26,0,0,0,.17-.23.23.23,0,0,0-.13-.21.27.27,0,0,0,.18-.23.24.24,0,0,0-.14-.21.27.27,0,0,0,.18-.23.25.25,0,0,0-.13-.21.29.29,0,0,0,.18-.24A.27.27,0,0,0,69,15.3a.27.27,0,0,0,.18-.23.27.27,0,0,0-.14-.21.26.26,0,0,0,.19-.23.24.24,0,0,0-.15-.21.26.26,0,0,0,.19-.23.27.27,0,0,0-.14-.22.24.24,0,0,0,.18-.23.25.25,0,0,0-.14-.21.26.26,0,0,0,.19-.23.25.25,0,0,0-.15-.21.26.26,0,0,0,.19-.23.24.24,0,0,0-.14-.21.24.24,0,0,0,0-.45.25.25,0,0,0,.19-.23.26.26,0,0,0-.15-.21.25.25,0,0,0,.19-.23.24.24,0,0,0-.11-.19H65.78a.25.25,0,0,0-.12.19A.26.26,0,0,0,65.85,11.76Zm2.44,11.71a.21.21,0,0,1-.15.19H67.08a.21.21,0,0,1-.15-.19.21.21,0,0,1,.15-.18h1.06A.21.21,0,0,1,68.29,23.47Zm0-.44a.21.21,0,0,1-.15.18H67a.18.18,0,0,1,0-.36h1.14A.21.21,0,0,1,68.33,23Zm0-.44a.2.2,0,0,1-.16.18H67a.18.18,0,0,1,0-.36h1.22A.22.22,0,0,1,68.38,22.59Zm0-.44a.2.2,0,0,1-.16.18H67A.18.18,0,0,1,67,22h1.3A.2.2,0,0,1,68.42,22.15Zm0-.44a.22.22,0,0,1-.16.18H66.92a.19.19,0,0,1,0-.37H68.3A.22.22,0,0,1,68.46,21.71Zm.05-.45a.2.2,0,0,1-.17.18H66.88a.19.19,0,0,1-.17-.18.2.2,0,0,1,.17-.18h1.46A.21.21,0,0,1,68.51,21.26Zm0-.44a.2.2,0,0,1-.17.18H66.84a.18.18,0,1,1,0-.36h1.54A.2.2,0,0,1,68.55,20.82Zm0-.44a.2.2,0,0,1-.18.18H66.8a.18.18,0,0,1,0-.36h1.62A.2.2,0,0,1,68.6,20.38Zm0-.44a.2.2,0,0,1-.18.18h-1.7a.18.18,0,1,1,0-.36h1.7A.2.2,0,0,1,68.64,19.94Zm0-.45a.22.22,0,0,1-.19.19H66.72a.21.21,0,0,1-.19-.19.2.2,0,0,1,.19-.18H68.5A.21.21,0,0,1,68.69,19.49Zm0-.44a.2.2,0,0,1-.19.18H66.68a.19.19,0,0,1-.19-.18.2.2,0,0,1,.19-.18h1.86A.21.21,0,0,1,68.73,19.05Zm0-.44a.2.2,0,0,1-.19.18H66.64a.18.18,0,1,1,0-.36h1.94A.19.19,0,0,1,68.77,18.61Zm0-.44a.21.21,0,0,1-.2.18h-2a.21.21,0,0,1-.2-.18.2.2,0,0,1,.2-.18h2A.2.2,0,0,1,68.82,18.17Zm0-.44a.21.21,0,0,1-.2.18h-2.1a.19.19,0,1,1,0-.37h2.1A.21.21,0,0,1,68.86,17.73Zm0-.45a.21.21,0,0,1-.21.18H66.52a.18.18,0,1,1,0-.36H68.7A.21.21,0,0,1,68.91,17.28Zm0-.44a.21.21,0,0,1-.21.18H66.48c-.1,0-.22-.08-.22-.18s.12-.18.22-.18h2.26A.21.21,0,0,1,69,16.84Zm0-.44a.21.21,0,0,1-.21.18H66.44c-.1,0-.22-.08-.22-.18s.12-.18.22-.18h2.34A.21.21,0,0,1,69,16.4ZM69,16c0,.1-.12.18-.22.18H66.4a.19.19,0,1,1,0-.37h2.42A.22.22,0,0,1,69,16Zm0-.45a.21.21,0,0,1-.22.19h-2.5a.19.19,0,1,1,0-.37h2.5A.21.21,0,0,1,69.08,15.51Zm0-.44a.21.21,0,0,1-.23.18H66.32a.21.21,0,0,1-.23-.18.22.22,0,0,1,.23-.18H68.9A.22.22,0,0,1,69.13,15.07Zm0-.44a.22.22,0,0,1-.23.18H66.28c-.13,0-.24-.09-.24-.18s.11-.18.24-.18h2.66A.21.21,0,0,1,69.17,14.63Zm0-.44c0,.09-.12.18-.24.18H66.24c-.13,0-.24-.09-.24-.18s.11-.18.24-.18H69C69.1,14,69.22,14.09,69.22,14.19Zm0-.45a.22.22,0,0,1-.24.19H66.2c-.13,0-.25-.09-.25-.19s.12-.18.25-.18H69C69.15,13.56,69.26,13.65,69.26,13.74Zm0-.44c0,.1-.11.18-.24.18h-2.9c-.13,0-.25-.08-.25-.18s.12-.18.25-.18h2.9C69.19,13.12,69.3,13.21,69.3,13.3Zm0-.44c0,.1-.12.18-.25.18h-3c-.14,0-.25-.08-.25-.18s.11-.18.25-.18h3C69.23,12.68,69.35,12.76,69.35,12.86Zm0-.44c0,.1-.11.18-.25.18H66.08c-.14,0-.26-.08-.26-.18s.12-.18.26-.18h3.06C69.28,12.24,69.39,12.32,69.39,12.42Zm0-.45c0,.1-.12.19-.26.19H66c-.14,0-.26-.09-.26-.19s.12-.18.26-.18h3.14C69.32,11.79,69.44,11.88,69.44,12ZM66,11.35h3.22c.14,0,.26.08.26.18s-.12.18-.26.18H66c-.15,0-.27-.08-.27-.18S65.85,11.35,66,11.35Z"/><polygon class="cls-1" points="65.78 11.34 65.78 11.34 65.78 11.34 65.78 11.34"/><path class="cls-1" d="M69.44,11.34h0v-.07H65.78v.07h3.66Z"/><path class="cls-1" d="M65.86,11.28h0Z"/><polygon class="cls-1" points="66.78 11.28 67.52 11.28 67.5 11.27 66.8 11.27 66.78 11.28"/><polygon class="cls-1" points="67.7 11.28 68.43 11.28 68.42 11.27 67.71 11.27 67.7 11.28"/><path class="cls-1" d="M68.62,11.28h0Z"/><path class="cls-1" d="M61.41,21.79l0,0H61.3a1.5,1.5,0,0,1,.09.18l-2.55.2a2.07,2.07,0,0,1-1.41-.8,1.83,1.83,0,0,1-.27-.58l3.39.34s0-.07,0-.1L58,20.79a2,2,0,0,1-1.25-1.48l.4.07h0l3,.69s0-.08,0-.11l-2.64-.61,0,0a2.19,2.19,0,0,1-1-1.51l.76.22,2.73,1a.53.53,0,0,1,0-.13l-2.77-1a3.35,3.35,0,0,1-.68-1.9l.64.41,3,1.76V18l-2.89-1.67A4.12,4.12,0,0,1,57.11,14l.79.68,2.63,2.46a.6.6,0,0,1,.08-.08L58,14.59a3.55,3.55,0,0,1,0-2.75l.63.89h0L61,16.18l.07-.1-2.2-3.26h0a4,4,0,0,1,.74-2.7l.34.91,1.55,4.73.11,0L60,11c.05-.3.32-1.73,1.08-2.07V8.81h.1l.26,1.66-.22-1.78-.07,0a2.6,2.6,0,0,0-1.23,2l-.31-.9-.07.08a4.25,4.25,0,0,0-.86,2.69l-.68-1,0,.06a3.21,3.21,0,0,0-.19,2.72c-.7-.6-.72-.6-.74-.6h0l0,0a4.55,4.55,0,0,0,.17,2.38l-.76-.47v.11A4.37,4.37,0,0,0,57,17.81l-.62-.19v.09a2.68,2.68,0,0,0,.8,1.55l-.55-.13v.09a2.36,2.36,0,0,0,.94,1.52L57,20.66l0,.09a2.56,2.56,0,0,0,.32.71,1.93,1.93,0,0,0,1,.76l-.56,0,0,.08a5.81,5.81,0,0,0,.53.76,2.05,2.05,0,0,0,.9.53l.2-.08a1.83,1.83,0,0,1-1-.51,3.32,3.32,0,0,1-.49-.67l3.37-.24h0a.86.86,0,0,1,.19-.11l-.15-.31s0,0,0,0Z"/><path class="cls-1" d="M63.87,23.67a1.84,1.84,0,0,1,0-1.72,3.52,3.52,0,0,0,1.33.29,1.18,1.18,0,0,0,.71-.2,3.16,3.16,0,0,0,0,.61,2,2,0,0,0,.53,1.3v.21h.08v-.24h0A1.89,1.89,0,0,1,66,22.64,4,4,0,0,1,66,22v-.11h0v0h0l-.16-.05h0s0,.1,0,.07l-.11-.11a5.77,5.77,0,0,1-1.85-1l-.3-.27,0-.06-.05-.06h0a2,2,0,0,1-.46-.76l-1.48-9.16.25,2,1.15,7.17a2.17,2.17,0,0,0,.51.83l-.15.34a3.42,3.42,0,0,1-.47-.45,2.23,2.23,0,0,1-.46-.84l-.38-3.7-.08.08V16l.38,3.64,0,.09a3,3,0,0,0,1,1.21l.06-.14h0l.1-.24a5.51,5.51,0,0,0,2.47,1.37c-.05.07-.22.23-.72.23a3.4,3.4,0,0,1-.53,0,1.85,1.85,0,0,1-1.44-1,1.12,1.12,0,0,1-.78-.29l-.11-.12a2.13,2.13,0,0,0-.91.94l0,.05a2,2,0,0,1,.87-.93l0,0,0,0,0,0a1.12,1.12,0,0,0,.75.3,1.56,1.56,0,0,0,.68.72,1.92,1.92,0,0,0,0,1.82,3.38,3.38,0,0,0,.47.69h.1A3.49,3.49,0,0,1,63.87,23.67Z"/><path class="cls-1" d="M60.27,20h-.05s0,.07,0,.11h0S60.27,20,60.27,20Z"/><path class="cls-1" d="M61.38,21.74v0h0l-.07,0v0h.06l0,0v0s0,0,0,0l0-.05Z"/><path class="cls-1" d="M60.31,18.07l-.05,0v.13l.06,0A.49.49,0,0,1,60.31,18.07Z"/><path class="cls-1" d="M60.08,19l-.06,0a.53.53,0,0,0,0,.13l0,0A.56.56,0,0,1,60.08,19Z"/><path class="cls-1" d="M61.2,8.8h-.09v.12a.05.05,0,0,0,0,0L61.53,12l-.2-2,.39,2.46-.25-2-.26-1.66Z"/><path class="cls-1" d="M61.83,15.81v.1l.08-.08v-.1Z"/><path class="cls-1" d="M60.59,21.06h-.05s0,.07,0,.1h.05A.38.38,0,0,0,60.59,21.06Z"/><path class="cls-1" d="M61.6,15.76v0l-.11,0,0,.05Z"/><path class="cls-1" d="M60.65,17.08l0,0a.6.6,0,0,0-.08.08l0,0Z"/><path class="cls-1" d="M61.08,16.13l0-.05-.07.1,0,0Z"/><path class="cls-1" d="M62.29,19.76a1.44,1.44,0,0,0-.1.37h0a.79.79,0,0,1-.95-.47.83.83,0,0,1,.29-1.07s0,0,0,0a.77.77,0,0,0,.61.66v-.09a.53.53,0,0,1-.43-.3,1.35,1.35,0,0,1-.15-.52c0-.19.11-.79.39-.93h0v-.1h0a1.13,1.13,0,0,0-.42.67.94.94,0,0,1-.69-.67l0,.05a.14.14,0,0,1,0,.06,1,1,0,0,0,.72.65,1.15,1.15,0,0,0,0,.37s0,.06,0,.07a.73.73,0,0,0-.42.53.84.84,0,0,1-.61-.38v.13a.87.87,0,0,0,.61.33,1.34,1.34,0,0,0,0,.49.8.8,0,0,0,.24.41,1.51,1.51,0,0,1-.83,0s0,0,0,.06v0a1.69,1.69,0,0,0,.74,0,.86.86,0,0,0,0,.61.91.91,0,0,1-.26.13s0,0,0,0l0,0a1.05,1.05,0,0,0,.26-.13.61.61,0,0,0,.36.31,1.38,1.38,0,0,0-.35.49s0,0,0,.06a2.13,2.13,0,0,1,.91-.94l.11.12a1.12,1.12,0,0,0,.78.29v0l.13-.32h0l-.06.14a3,3,0,0,1-1-1.21.81.81,0,0,1,.06.13A.59.59,0,0,0,62.29,19.76Zm-.5,1.29h0a.71.71,0,0,1-.37-.9s0-.06.06-.06a1,1,0,0,0,.73.13,1,1,0,0,0,.08.49A2.84,2.84,0,0,0,61.79,21.05Zm.91-.63a3.3,3.3,0,0,0,.5.47l-.08.2a1.07,1.07,0,0,1-.67-.28.45.45,0,0,1-.07-.07,1.09,1.09,0,0,1,0-.88A3.56,3.56,0,0,0,62.7,20.42Z"/><path class="cls-1" d="M62.23,19.62,61.85,16l.37,3.64Z"/><path class="cls-1" d="M60.41,18.68l.08.11v-.13l-.06-.11A.51.51,0,0,1,60.41,18.68Z"/><path class="cls-1" d="M61.1,16.15l0,0-.07.09,0,0Z"/><path class="cls-1" d="M60.67,17.1l0,0-.08.08,0,0Z"/><path class="cls-1" d="M60.11,19h0a.56.56,0,0,0,0,.13h0A.56.56,0,0,1,60.11,19Z"/><path class="cls-1" d="M60.59,21.06a.38.38,0,0,1,0,.1h0v-.09Z"/><path class="cls-1" d="M60.82,17.24l-.06,0a2,2,0,0,0,.06.23.14.14,0,0,0,0-.06l0-.05,0-.12A.08.08,0,0,0,60.82,17.24Z"/><path class="cls-1" d="M61.61,15.79v0l-.1.05v0Z"/><path class="cls-1" d="M60.49,20h-.05l.14.06v0s0,0,0-.06l-.08,0A.28.28,0,0,0,60.49,20Z"/><path class="cls-1" d="M60.76,20.91l0,.07H61l.16,0,0,0s0,0,0,0l-.14,0Z"/><path class="cls-1" d="M61.34,21.73h-.07l0,0,.07,0h0v0l0-.08s0,0,0-.06A.5.5,0,0,0,61.34,21.73Z"/><path class="cls-1" d="M60.35,18.18s0,0,0,0v-.07l0,0a.49.49,0,0,0,0,.13l0,0Z"/><path class="cls-1" d="M60.31,20h0s0,.08,0,.11h0A.36.36,0,0,1,60.31,20Z"/><path class="cls-1" d="M60.81,21.64a.77.77,0,0,1-.21-.48h-.05a.82.82,0,0,0,.22.51.57.57,0,0,0,.41.16h.12v0h0A.53.53,0,0,1,60.81,21.64Z"/><path class="cls-1" d="M61.26,21.74h-.08a.5.5,0,0,1-.35-.14.7.7,0,0,1-.2-.45h0a.77.77,0,0,0,.21.48.53.53,0,0,0,.46.14h0l0,0Z"/><path class="cls-1" d="M60.3,19.85a1.85,1.85,0,0,1-.22-.76l0,0a1.72,1.72,0,0,0,.22.78l0,.12h.05Z"/><path class="cls-1" d="M60.32,19.92a.4.4,0,0,0,.12.1h.05a.28.28,0,0,1,0-.09.33.33,0,0,1-.14-.11l0,0a1.74,1.74,0,0,1-.21-.71h0a1.85,1.85,0,0,0,.22.76l0,.13h0A.15.15,0,0,1,60.32,19.92Z"/><path class="cls-1" d="M60.6,20.92a.8.8,0,0,1-.34-.83h0a.86.86,0,0,0,.31.85h0v.11h.05A.71.71,0,0,1,60.6,20.92Z"/><path class="cls-1" d="M60.62,21h.17l0-.07a.41.41,0,0,1-.19-.05h0a.82.82,0,0,1-.27-.76h0a.8.8,0,0,0,.34.83.71.71,0,0,0,0,.14h0S60.62,21,60.62,21Z"/><path class="cls-1" d="M61.82,15.7v0h0v.08l.08-.08L61.53,12l-.37-3.11a.05.05,0,0,1,0,0l.69,6.72a1.06,1.06,0,0,0-.22.07v0Z"/><path class="cls-1" d="M61.82,15.73v0l-.22.06v0Z"/><path class="cls-1" d="M60.32,18.25V18.2l-.06,0s0,0,0,.06a1.3,1.3,0,0,0-.25.71l.06,0A1.19,1.19,0,0,1,60.32,18.25Z"/><path class="cls-1" d="M60.29,18.35a1.18,1.18,0,0,0,.12.33.51.51,0,0,0,0-.13,1,1,0,0,1-.08-.29h0v0l0,0v.05a1.19,1.19,0,0,0-.24.71h0A1.13,1.13,0,0,1,60.29,18.35Z"/><path class="cls-1" d="M60.57,17.16l0,0a1.67,1.67,0,0,0-.27.92l.05,0A1.57,1.57,0,0,1,60.57,17.16Z"/><path class="cls-1" d="M60.6,17.18l0,0a1.57,1.57,0,0,0-.26.91l0,0A1.57,1.57,0,0,1,60.6,17.18Z"/><path class="cls-1" d="M60.8,17v0h0a1.43,1.43,0,0,1,.21-.72l0,0a1.39,1.39,0,0,0-.24.75h0a.41.41,0,0,0-.13.1l0,0A.42.42,0,0,1,60.8,17Z"/><path class="cls-1" d="M60.75,17s0,.11,0,.16l.06,0a.08.08,0,0,1,0,0,.67.67,0,0,1,0-.2h0v0a1.37,1.37,0,0,1,.2-.69l0,0a1.43,1.43,0,0,0-.21.72h0v0a.42.42,0,0,0-.15.11l0,0Z"/><path class="cls-1" d="M61.5,15.81l0-.05a1.5,1.5,0,0,0-.43.32l0,.05A1.1,1.1,0,0,1,61.5,15.81Z"/><path class="cls-1" d="M61.39,15.9l.12-.06v0a1.1,1.1,0,0,0-.42.32l0,0A1.41,1.41,0,0,1,61.39,15.9Z"/><path class="cls-1" d="M61.53,18.08a1.09,1.09,0,0,0,0,.36v0s0,0,0,0a.68.68,0,0,0-.42.53.8.8,0,0,1-.6-.38h0a.84.84,0,0,0,.61.38.73.73,0,0,1,.42-.53s0,0,0-.07a1.15,1.15,0,0,1,0-.37,1,1,0,0,1-.72-.65h0A1,1,0,0,0,61.53,18.08Z"/><path class="cls-1" d="M60.75,17.18a1.83,1.83,0,0,0,.06.25h0a2,2,0,0,1-.06-.23Z"/><path class="cls-1" d="M60.44,18.53v0l.06.11h0A.34.34,0,0,1,60.44,18.53Z"/><path class="cls-1" d="M60.36,18.18a0,0,0,0,0,0,0v-.06h0v.07s0,0,0,0v0h0Z"/><path class="cls-1" d="M60.68,17.11h0l-.07.08h0A.3.3,0,0,1,60.68,17.11Z"/><path class="cls-1" d="M60.36,18.26h0v0h0v0h0a1,1,0,0,0,.08.29v0a.77.77,0,0,1-.08-.27Z"/><path class="cls-1" d="M60.6,17.19h0a1.57,1.57,0,0,0-.26.91h0A1.58,1.58,0,0,1,60.6,17.19Z"/><path class="cls-1" d="M60.67,17.1h0l.06-.06s0,.08,0,.13h0c0-.05,0-.11,0-.16Z"/><path class="cls-1" d="M61.09,19.13a1.6,1.6,0,0,0,0,.48.8.8,0,0,0,.23.4,1.86,1.86,0,0,1-.34,0,1.32,1.32,0,0,1-.47-.08h0a1.51,1.51,0,0,0,.83,0,.8.8,0,0,1-.24-.41,1.34,1.34,0,0,1,0-.49.87.87,0,0,1-.61-.33h0A.93.93,0,0,0,61.09,19.13Z"/><path class="cls-1" d="M60.11,19h0a.56.56,0,0,0,0,.13h0S60.11,19,60.11,19Z"/><path class="cls-1" d="M60.41,18.7a.61.61,0,0,1,.07.1h0l-.08-.11Z"/><path class="cls-1" d="M60.47,19.93h0l.08,0h0Z"/><path class="cls-1" d="M60.35,19.82l0,0a2,2,0,0,1-.18-.53,1,1,0,0,1,0-.17h0a1.74,1.74,0,0,0,.21.71l0,0a.33.33,0,0,0,.14.11h0A.32.32,0,0,1,60.35,19.82Z"/><path class="cls-1" d="M60.11,19h0a1.18,1.18,0,0,1,.18-.61.93.93,0,0,0,.12.33v0a1.18,1.18,0,0,1-.12-.33A1.13,1.13,0,0,0,60.11,19Z"/><polygon class="cls-1" points="61.85 15.98 61.84 15.9 61.84 15.9 61.85 15.98"/><path class="cls-1" d="M62.27,19.71l0-.09h0Z"/><polygon class="cls-1" points="61.83 15.81 61.84 15.9 61.84 15.9 61.83 15.81 61.83 15.81"/><path class="cls-1" d="M61.83,15.91,62,17.3h0a1.26,1.26,0,0,0-.42.67.93.93,0,0,1-.67-.68h0v0a.94.94,0,0,0,.69.67,1.13,1.13,0,0,1,.42-.67h0v.1h0c-.28.14-.41.74-.39.93a1.35,1.35,0,0,0,.15.52.53.53,0,0,0,.43.3v.09a.77.77,0,0,1-.61-.66s0,0,0,0a.83.83,0,0,0-.29,1.07.79.79,0,0,0,.95.47h0a1.44,1.44,0,0,1,.1-.37.59.59,0,0,1,0,.08.81.81,0,0,0-.06-.13l0-.08h0L61.85,16v-.07Zm.39,3.71h0s0,0,0,.06l0,.06h0a1.33,1.33,0,0,0-.09.37l-.22,0a.73.73,0,0,1-.72-.49.8.8,0,0,1,.29-1h0c.08.31.3.64.62.66l0,.37Zm-.47-.76a1.52,1.52,0,0,1-.14-.52,1.22,1.22,0,0,1,.38-.92l.18,1.73A.52.52,0,0,1,61.75,18.86Z"/><path class="cls-1" d="M61.51,15.85l.11,0h0l-.1.05Z"/><path class="cls-1" d="M61,16.25h0a.36.36,0,0,1,.07-.1h0Z"/><path class="cls-1" d="M60.84,17.19l0,.12v0h0l0-.12Z"/><polygon class="cls-1" points="61.83 15.91 61.84 15.9 61.83 15.81 61.82 15.81 61.83 15.91"/><polygon class="cls-1" points="61.82 15.73 61.83 15.81 61.83 15.81 61.83 15.73 61.82 15.73"/><path class="cls-1" d="M61.61,15.79h0l.2-.06v.07h0v-.08Z"/><path class="cls-1" d="M60.83,16.94v0h0a.67.67,0,0,0,0,.2v0a1.1,1.1,0,0,1,0-.18v0a1.4,1.4,0,0,1,.21-.68h0A1.37,1.37,0,0,0,60.83,16.94Z"/><path class="cls-1" d="M61.39,15.9a1.41,1.41,0,0,0-.29.25h0a1,1,0,0,1,.29-.25l.11-.06h0Z"/><path class="cls-1" d="M61,20.15l.29,0a.8.8,0,0,0,0,.59.66.66,0,0,1-.25.13h0a.91.91,0,0,0,.26-.13.86.86,0,0,1,0-.61,1.69,1.69,0,0,1-.74,0h0A1.46,1.46,0,0,0,61,20.15Z"/><path class="cls-1" d="M60.32,20h0a.36.36,0,0,0,0,.11h0A.43.43,0,0,1,60.32,20Z"/><path class="cls-1" d="M61,20.88l-.17,0h0l.19,0,.14,0h0A.5.5,0,0,1,61,20.88Z"/><path class="cls-1" d="M60.41,20l.17.08h0L60.44,20Z"/><path class="cls-1" d="M60.31,20h0v0l.09.07h0a.4.4,0,0,1-.12-.1A.15.15,0,0,0,60.31,20Z"/><path class="cls-1" d="M60.57,20.85a.8.8,0,0,1-.27-.75h0a.82.82,0,0,0,.27.76h0a.41.41,0,0,0,.19.05h0a.61.61,0,0,1-.18,0Z"/><path class="cls-1" d="M62.38,20.74a.45.45,0,0,0,.07.07,1.07,1.07,0,0,0,.67.28l.08-.2a3.3,3.3,0,0,1-.5-.47,3.56,3.56,0,0,1-.36-.56A1.09,1.09,0,0,0,62.38,20.74Zm0-.86a2.54,2.54,0,0,0,.36.54,2.73,2.73,0,0,0,.49.47l-.08.19a1.1,1.1,0,0,1-.66-.28l-.06-.06A1.09,1.09,0,0,1,62.34,19.88Z"/><path class="cls-1" d="M61.38,20.81a.58.58,0,0,0,.34.3,1.58,1.58,0,0,0-.34.48h0a1.38,1.38,0,0,1,.35-.49.61.61,0,0,1-.36-.31,1.05,1.05,0,0,1-.26.13h0A.76.76,0,0,0,61.38,20.81Z"/><path class="cls-1" d="M61.33,21.72h0a.5.5,0,0,1,0-.13h0A.69.69,0,0,0,61.33,21.72Z"/><path class="cls-1" d="M60.64,21.07h0v.09h0Z"/><path class="cls-1" d="M60.79,21H61l.16-.05h0L61,21Z"/><path class="cls-1" d="M61.26,21.73h-.08a.5.5,0,0,1-.35-.14.69.69,0,0,1-.19-.44h0a.7.7,0,0,0,.2.45.5.5,0,0,0,.35.14h.08Z"/><path class="cls-1" d="M60.63,21.07h0s0-.06,0-.09h0S60.63,21,60.63,21.07Z"/><path class="cls-1" d="M62.19,20.21a1,1,0,0,1-.73-.13s-.06.05-.06.06a.71.71,0,0,0,.37.9h0a2.84,2.84,0,0,1,.48-.35A1,1,0,0,1,62.19,20.21Zm.07.49a2.47,2.47,0,0,0-.47.34h0a.5.5,0,0,1-.32-.29.73.73,0,0,1-.05-.59s0-.06.06-.06a.89.89,0,0,0,.52.15l.2,0A1.06,1.06,0,0,0,62.26,20.7Z"/><path class="cls-1" d="M62.86,19.66a2.05,2.05,0,0,0,.51.82l-.14.32a2.4,2.4,0,0,1-.46-.44,2.43,2.43,0,0,1-.46-.83l-.38-3.71h0l.38,3.7a2.23,2.23,0,0,0,.46.84,3.42,3.42,0,0,0,.47.45l.15-.34a2.17,2.17,0,0,1-.51-.83l-1.15-7.17,0,.27Z"/><polygon class="cls-1" points="61.53 12.02 61.6 12.62 61.37 10.36 61.75 12.75 61.72 12.48 61.33 10.02 61.53 12.02"/><polygon class="cls-1" points="61.92 15.72 61.91 15.73 61.92 15.83 61.93 15.82 61.92 15.72"/><polygon class="cls-1" points="61.92 15.72 61.6 12.62 61.53 12.02 61.91 15.73 61.92 15.72"/><path class="cls-1" d="M62.36,22.17c.87.78-.07,1.95-.66,2.19a2.81,2.81,0,0,1-2.81-.52l.44-.19-.07,0-.45.2,0,.05a3.05,3.05,0,0,0,1.88.71,2.53,2.53,0,0,0,1-.19,1.91,1.91,0,0,0,1-1.28,1,1,0,0,0-.35-1,.82.82,0,0,0-.74-.13l-.07,0a.05.05,0,0,0,0,0A.76.76,0,0,1,62.36,22.17Z"/><path class="cls-1" d="M59.54,23.56h-.08l-.2.08.07,0Z"/><path class="cls-1" d="M61.41,22.16l.19-.1a.05.05,0,0,1,0,0,.86.86,0,0,0-.19.11Z"/><path class="cls-1" d="M61.62,22.11l.06,0a.78.78,0,0,1,.22,0,.64.64,0,0,1,.43.15.91.91,0,0,1,.32.9,1.82,1.82,0,0,1-1,1.22A2.76,2.76,0,0,1,59,23.86l.43-.19-.07,0-.44.19a2.81,2.81,0,0,0,2.81.52c.59-.24,1.53-1.41.66-2.19a.76.76,0,0,0-.76-.11h0A.11.11,0,0,1,61.62,22.11Z"/><path class="cls-1" d="M61.51,23l0,0a.51.51,0,0,0,.59-.06L62,23A.45.45,0,0,1,61.51,23Z"/><path class="cls-1" d="M61.47,23l0,0a.53.53,0,0,0,.66,0s0,0,0-.06a0,0,0,0,0-.06,0l0,0,.06,0A.51.51,0,0,1,61.47,23Z"/><path class="cls-1" d="M61.62,22.11a.11.11,0,0,0,0,0h0l-.19.1,0,0A.51.51,0,0,1,61.62,22.11Z"/><path class="cls-1" d="M61.47,23l0,0,0,0,0,0-.05,0Z"/><path class="cls-1" d="M59.62,23.58l-.08,0-.21.09.07,0Z"/><path class="cls-1" d="M61.43,23.06l0,0-.1-.08,0,0,.09.08Z"/><path class="cls-1" d="M61.27,22.81a.54.54,0,0,1-.05-.37.63.63,0,0,1,.19-.28l0,0a.57.57,0,0,0-.21.3.51.51,0,0,0,0,.36l-1.75.76h.08Z"/><path class="cls-1" d="M61.22,22.44a.54.54,0,0,0,.05.37h0s0,0,0,0h0a.48.48,0,0,1,0-.33.56.56,0,0,1,.18-.25l0,0A.63.63,0,0,0,61.22,22.44Z"/><path class="cls-1" d="M61.42,22.94l-.1-.12h0a.56.56,0,0,0,.1.15Z"/><path class="cls-1" d="M61.25,22.87a.44.44,0,0,0,.08.11l0,0a.56.56,0,0,1-.1-.15l-1.73.75.08,0Z"/><path class="cls-1" d="M79,17.71v-.09l-.63.19a4.29,4.29,0,0,0,.58-1.95v-.11l-.76.47a4.44,4.44,0,0,0,.17-2.38v0h0s0,0-.74.6a3.25,3.25,0,0,0-.19-2.72l0-.06-.68,1a4.19,4.19,0,0,0-.86-2.69l-.06-.08-.32.9a2.57,2.57,0,0,0-1.23-2l-.07,0-.22,1.79.27-1.67h.09v.12c.76.34,1,1.77,1.09,2.07l-1.55,4.72.1,0L75.42,11l.33-.91a4,4,0,0,1,.75,2.7h0l-2.21,3.26a.36.36,0,0,1,.07.1l2.34-3.44h0l.62-.89a3.58,3.58,0,0,1,0,2.75L74.74,17l.07.08,2.63-2.46.8-.68A4.32,4.32,0,0,1,78,16.37L75.08,18v.13l3-1.76.65-.41a3.43,3.43,0,0,1-.68,1.9l-2.78,1v.13l2.73-1,.76-.22a2.17,2.17,0,0,1-1,1.51l0,0L75.12,20s0,.07,0,.11l3-.69h0l.4-.07a2,2,0,0,1-1.24,1.48l-2.51.27v.1l3.39-.34a1.92,1.92,0,0,1-.28.58,2,2,0,0,1-1.41.8L74,22l.09-.18H74l0,0,0,0a.08.08,0,0,0,0,0,3.33,3.33,0,0,1-.14.31.54.54,0,0,1,.18.11h0l3.38.24a3.77,3.77,0,0,1-.49.67,1.88,1.88,0,0,1-1,.51l.19.08a2,2,0,0,0,.9-.53,4.92,4.92,0,0,0,.53-.76l0-.08-.56,0a2,2,0,0,0,1-.76,2.94,2.94,0,0,0,.32-.71l0-.09-.61.08a2.36,2.36,0,0,0,.94-1.52l0-.09-.55.13A2.68,2.68,0,0,0,79,17.71Z"/><path class="cls-1" d="M73,20.72l-.1.12a1.15,1.15,0,0,1-.78.29,1.85,1.85,0,0,1-1.44,1,3.59,3.59,0,0,1-.53,0c-.5,0-.67-.16-.73-.23a5.51,5.51,0,0,0,2.47-1.37l.1.24h0l0,.14a2.9,2.9,0,0,0,1-1.21.31.31,0,0,0,0-.09l.39-3.71-.07-.08-.38,3.7a2.35,2.35,0,0,1-.47.84,2.93,2.93,0,0,1-.47.45L72,20.48a2.3,2.3,0,0,0,.51-.83l1.14-7.16.25-2L72.4,19.63a2.15,2.15,0,0,1-.46.76h0l0,.06-.06.06a2.56,2.56,0,0,1-.29.27,5.73,5.73,0,0,1-1.58.88,2.49,2.49,0,0,1-.39.14l-.22.06h0l0,0v0h0V22a5.1,5.1,0,0,1,0,.68,1.94,1.94,0,0,1-.52,1.26h0l0,.25h.09V24a2,2,0,0,0,.53-1.3,4.24,4.24,0,0,0,0-.61,1.13,1.13,0,0,0,.71.2,3.26,3.26,0,0,0,.58-.06,2.93,2.93,0,0,0,.74-.23,1.78,1.78,0,0,1,0,1.72,3,3,0,0,1-.52.74h.1a2.86,2.86,0,0,0,.49-.72,1.87,1.87,0,0,0,0-1.82,1.67,1.67,0,0,0,.69-.72,1.15,1.15,0,0,0,.75-.3s0,0,0,0l0,0,0,0a2,2,0,0,1,.87.93l0-.05A2,2,0,0,0,73,20.72Z"/><path class="cls-1" d="M69.57,21.79a2.49,2.49,0,0,0,.39-.14l-.59.19h0Z"/><path class="cls-1" d="M74.78,17.16l0,0L74.74,17l0,0Z"/><path class="cls-1" d="M75.08,20.09h.06s0-.08,0-.11h-.05A.45.45,0,0,1,75.08,20.09Z"/><path class="cls-1" d="M75,18.2l0,0V18l0,0Z"/><path class="cls-1" d="M74.74,21.16h.06v-.1h0A.31.31,0,0,1,74.74,21.16Z"/><path class="cls-1" d="M74,10l-.2,2,.36-3.1,0,0V8.81h-.09l-.27,1.67-.25,2Z"/><path class="cls-1" d="M73.94,21.79l0,0H74s0,0,0,0l-.07,0h0v0l0-.08,0,.05a.08.08,0,0,1,0,0Z"/><path class="cls-1" d="M73.85,15.81v-.05l-.1,0,0,0Z"/><path class="cls-1" d="M75.27,19.09l0,0v-.13l0,0Z"/><path class="cls-1" d="M74.33,16.22l0,0a.36.36,0,0,0-.07-.1l0,.05Z"/><path class="cls-1" d="M73.44,15.73v.1l.07.08v-.1Z"/><path class="cls-1" d="M73.12,19.62l.38-3.71h0l-.39,3.71Z"/><path class="cls-1" d="M73.61,21.11A.62.62,0,0,0,74,20.8a1,1,0,0,0,.27.13v0l0,0a.91.91,0,0,1-.26-.13.86.86,0,0,0,0-.61,1.68,1.68,0,0,0,.74,0,.06.06,0,0,0,0,0l0-.06A1.51,1.51,0,0,1,74,20a.88.88,0,0,0,.24-.41,1.6,1.6,0,0,0,0-.49.89.89,0,0,0,.61-.33s0-.08,0-.13a.82.82,0,0,1-.61.38.71.71,0,0,0-.42-.53s0,0,0-.07a2.29,2.29,0,0,0,0-.37,1,1,0,0,0,.71-.65.14.14,0,0,0,0-.06l0-.05a.92.92,0,0,1-.69.67,1.12,1.12,0,0,0-.41-.67h0v.1h0a1.19,1.19,0,0,1,.38.93,1.54,1.54,0,0,1-.14.52.54.54,0,0,1-.43.3v.09c.32,0,.54-.34.62-.66,0,0,0,0,0,0a.81.81,0,0,1,.29,1.07.78.78,0,0,1-.95.47h0a2,2,0,0,0-.09-.37.56.56,0,0,0,0,.08.69.69,0,0,0,.06-.13,2.9,2.9,0,0,1-1,1.21l0-.14h0l.14.32v0a1.15,1.15,0,0,0,.78-.29l.1-.12a2,2,0,0,1,.91.94l0-.06A1.69,1.69,0,0,0,73.61,21.11ZM73,20.74l-.06.07a1.08,1.08,0,0,1-.68.28l-.08-.2a2.88,2.88,0,0,0,.5-.47,3,3,0,0,0,.36-.56A1,1,0,0,1,73,20.74Zm.59.31a2.84,2.84,0,0,0-.48-.35,1,1,0,0,0,.09-.49,1,1,0,0,0,.72-.13s.06.05.07.06a.7.7,0,0,1-.38.9Z"/><path class="cls-1" d="M74.91,18.55l-.06.11c0,.05,0,.09,0,.13l.07-.11A.69.69,0,0,0,74.91,18.55Z"/><path class="cls-1" d="M74.53,17.24l0,0a.27.27,0,0,1,0,.12l0,.05a.14.14,0,0,1,0,.06,1,1,0,0,0,.06-.23Z"/><path class="cls-1" d="M74.85,20s0-.06,0-.09a.2.2,0,0,0-.08,0l0,.06a.06.06,0,0,1,0,0L74.9,20Z"/><path class="cls-1" d="M74,21.73h0c0-.05,0-.09,0-.13l0,.06,0,.08v0h0l.07,0v0Z"/><path class="cls-1" d="M75,18.16v0s0,0,0,0l0,0v-.13l0,0Z"/><path class="cls-1" d="M74.75,17.18l0,0-.08-.08,0,0A.6.6,0,0,1,74.75,17.18Z"/><path class="cls-1" d="M75.05,20.1h0a.45.45,0,0,0,0-.11h0S75.05,20.06,75.05,20.1Z"/><path class="cls-1" d="M74.31,16.25l0,0-.07-.09,0,0A.61.61,0,0,1,74.31,16.25Z"/><path class="cls-1" d="M75.24,19.1h0V19h0Z"/><path class="cls-1" d="M74.56,21l0-.07-.2,0-.13,0,0,0v0l.16,0Z"/><rect class="cls-1" x="73.46" y="15.86" width="0.1"/><path class="cls-1" d="M73.84,15.84v0l-.11-.05v0Z"/><path class="cls-1" d="M74.71,21.16h0a.31.31,0,0,0,0-.1h0A.28.28,0,0,1,74.71,21.16Z"/><path class="cls-1" d="M74.54,21.64a.54.54,0,0,1-.46.14h0s0,0,0,0h.13a.58.58,0,0,0,.41-.16.82.82,0,0,0,.22-.51h-.06A.76.76,0,0,1,74.54,21.64Z"/><path class="cls-1" d="M74.54,21.64a.76.76,0,0,0,.2-.48h0a.74.74,0,0,1-.19.45.5.5,0,0,1-.35.14h-.1v0h0A.54.54,0,0,0,74.54,21.64Z"/><path class="cls-1" d="M75,19.85l0,.13h.05a.5.5,0,0,0,0-.12,1.87,1.87,0,0,0,.22-.78l0,0A1.67,1.67,0,0,1,75,19.85Z"/><path class="cls-1" d="M75,19.81a0,0,0,0,0,0,0,.4.4,0,0,1-.14.11s0,.06,0,.09h.05a.45.45,0,0,0,.13-.1A.2.2,0,0,0,75,20h0l0-.13a1.67,1.67,0,0,0,.23-.76h0A2.15,2.15,0,0,1,75,19.81Z"/><path class="cls-1" d="M74.75,20.92v.14h0a.41.41,0,0,0,0-.11h0a.88.88,0,0,0,.31-.85h-.06A.79.79,0,0,1,74.75,20.92Z"/><path class="cls-1" d="M74.78,20.86h0a.49.49,0,0,1-.19.05l0,.07h.16v.1h0v-.14a.79.79,0,0,0,.33-.83h0A.78.78,0,0,1,74.78,20.86Z"/><path class="cls-1" d="M73.82,12l-.38,3.72.07.08V15.7l.22.06,0,0a1.06,1.06,0,0,0-.22-.07l.68-6.72,0,0Z"/><path class="cls-1" d="M73.52,15.73l.21.06v0l-.22-.06v.11h0Z"/><path class="cls-1" d="M75,18.25a1.2,1.2,0,0,1,.25.71l0,0a1.29,1.29,0,0,0-.24-.71v-.06l0,0A.43.43,0,0,1,75,18.25Z"/><path class="cls-1" d="M75,18.25h0a1,1,0,0,1-.08.29.69.69,0,0,1,0,.13.93.93,0,0,0,.12-.33,1.07,1.07,0,0,1,.19.62h0a1.2,1.2,0,0,0-.25-.71.43.43,0,0,0,0-.05l0,0Z"/><path class="cls-1" d="M75,18.07l0,0a1.6,1.6,0,0,0-.27-.92l0,0A1.63,1.63,0,0,1,75,18.07Z"/><path class="cls-1" d="M75,18.09l0,0a1.63,1.63,0,0,0-.25-.91l0,0A1.63,1.63,0,0,1,75,18.09Z"/><path class="cls-1" d="M74.55,16.94h0v0a.53.53,0,0,1,.15.11l0,0a.45.45,0,0,0-.14-.1h0a1.31,1.31,0,0,0-.24-.75l0,0A1.43,1.43,0,0,1,74.55,16.94Z"/><path class="cls-1" d="M74.52,16.94v0h0a1.36,1.36,0,0,1,0,.2l0,0,0,0c0-.05,0-.11,0-.16l.07.07,0,0a.53.53,0,0,0-.15-.11v0h0a1.43,1.43,0,0,0-.22-.72l0,0A1.28,1.28,0,0,1,74.52,16.94Z"/><path class="cls-1" d="M74.26,16.13l0-.05a1.37,1.37,0,0,0-.43-.32v.05A1.15,1.15,0,0,1,74.26,16.13Z"/><path class="cls-1" d="M74,15.9a1.19,1.19,0,0,1,.29.25l0,0a1.15,1.15,0,0,0-.41-.32v0Z"/><path class="cls-1" d="M74.25,19a.71.71,0,0,0-.43-.53s0,0,0,0v0a2.16,2.16,0,0,0,0-.36,1,1,0,0,0,.71-.65h0a1,1,0,0,1-.71.65,2.29,2.29,0,0,1,0,.37s0,.06,0,.07a.71.71,0,0,1,.42.53.82.82,0,0,0,.61-.38h0A.82.82,0,0,1,74.25,19Z"/><path class="cls-1" d="M74.74,17.19h0a.6.6,0,0,0-.08-.08h0Z"/><path class="cls-1" d="M75,18.15v0s0,0,0,.05h0s0,0,0,0v-.09h0Z"/><path class="cls-1" d="M74.91,18.53l-.06.12h0l.06-.11Z"/><path class="cls-1" d="M74.59,17.18h0a1,1,0,0,1-.06.23h0A1,1,0,0,0,74.59,17.18Z"/><path class="cls-1" d="M75,18.25h0a.77.77,0,0,1-.07.27v0a1,1,0,0,0,.08-.29h0v0h0Z"/><path class="cls-1" d="M75,18.09h0a1.63,1.63,0,0,0-.25-.91h0A1.58,1.58,0,0,1,75,18.09Z"/><path class="cls-1" d="M74.61,17.05l.06.06h0L74.6,17s0,.11,0,.16h0C74.6,17.13,74.6,17.09,74.61,17.05Z"/><path class="cls-1" d="M74.31,20.05A1.86,1.86,0,0,1,74,20a.8.8,0,0,0,.23-.4,1.6,1.6,0,0,0,.05-.48.93.93,0,0,0,.6-.33h0a.89.89,0,0,1-.61.33,1.6,1.6,0,0,1,0,.49A.88.88,0,0,1,74,20a1.51,1.51,0,0,0,.83,0h0A1.38,1.38,0,0,1,74.31,20.05Z"/><path class="cls-1" d="M74.93,18.7v0l-.07.11h0A.61.61,0,0,0,74.93,18.7Z"/><path class="cls-1" d="M75.23,19.1h0V19h0Z"/><path class="cls-1" d="M74.87,19.93l-.08,0h0a.2.2,0,0,1,.08,0Z"/><path class="cls-1" d="M75.21,19.27a1.61,1.61,0,0,1-.19.53s0,0,0,0a.36.36,0,0,1-.13.11h0a.4.4,0,0,0,.14-.11,0,0,0,0,1,0,0,2.15,2.15,0,0,0,.21-.71h0C75.22,19.16,75.22,19.21,75.21,19.27Z"/><path class="cls-1" d="M75.06,18.37a1.17,1.17,0,0,1,.17.61h0a1.07,1.07,0,0,0-.19-.62.93.93,0,0,1-.12.33v0A1,1,0,0,0,75.06,18.37Z"/><path class="cls-1" d="M73.11,19.62a.31.31,0,0,1,0,.09l0-.08Z"/><path class="cls-1" d="M73.06,19.76a2,2,0,0,1,.09.37h0a.78.78,0,0,0,.95-.47.81.81,0,0,0-.29-1.07s0,0,0,0c-.08.32-.3.64-.62.66v-.09a.54.54,0,0,0,.43-.3,1.54,1.54,0,0,0,.14-.52,1.19,1.19,0,0,0-.38-.93h0v-.1h0a1.12,1.12,0,0,1,.41.67.92.92,0,0,0,.69-.67v0h0a.94.94,0,0,1-.68.68,1.15,1.15,0,0,0-.42-.67h0l.14-1.39h0l-.38,3.71h0l0,.08a.69.69,0,0,1-.06.13A.56.56,0,0,1,73.06,19.76Zm.3-2.34a1.22,1.22,0,0,1,.38.92,1.78,1.78,0,0,1-.15.52.51.51,0,0,1-.41.29Zm-.27,2.27,0-.06h0l0-.37c.32,0,.54-.35.62-.66h0a.81.81,0,0,1,.29,1,.74.74,0,0,1-.73.49l-.21,0a1.86,1.86,0,0,0-.1-.37h0A.09.09,0,0,0,73.09,19.69Z"/><path class="cls-1" d="M73.83,15.85h0l-.11-.05h0Z"/><path class="cls-1" d="M74.5,17.17l0,.12h0v0a.27.27,0,0,0,0-.12Z"/><path class="cls-1" d="M74.31,16.26h0a.61.61,0,0,0-.07-.1h0A.86.86,0,0,1,74.31,16.26Z"/><polygon class="cls-1" points="73.51 15.81 73.5 15.9 73.51 15.91 73.52 15.81 73.51 15.81"/><path class="cls-1" d="M73.53,15.74l.2.06h0l-.21-.06v.08h0Z"/><path class="cls-1" d="M74.51,16.94v0a1.09,1.09,0,0,1,0,.18v0a1.36,1.36,0,0,0,0-.2h0v0a1.28,1.28,0,0,0-.21-.69h0A1.3,1.3,0,0,1,74.51,16.94Z"/><path class="cls-1" d="M74,15.91a1.16,1.16,0,0,1,.29.25h0A1.19,1.19,0,0,0,74,15.9l-.11-.06h0Z"/><path class="cls-1" d="M74,20.72a.86.86,0,0,0,0-.59l.28,0a1.42,1.42,0,0,0,.44-.06h0a1.68,1.68,0,0,1-.74,0,.86.86,0,0,1,0,.61.91.91,0,0,0,.26.13h0A.75.75,0,0,1,74,20.72Z"/><path class="cls-1" d="M74.93,20h0l-.14.06h0A.54.54,0,0,0,74.93,20Z"/><path class="cls-1" d="M75,20.1h0S75,20,75,20h0S75,20.07,75,20.1Z"/><path class="cls-1" d="M74.59,20.91h0l-.17,0-.13,0h0l.13,0Z"/><path class="cls-1" d="M75,19.94a.09.09,0,0,1,0,0h0a.2.2,0,0,1,0-.07.45.45,0,0,1-.13.1h0A.22.22,0,0,0,75,19.94Z"/><path class="cls-1" d="M74.78,20.85h0a.48.48,0,0,1-.18,0h0a.49.49,0,0,0,.19-.05h0a.78.78,0,0,0,.27-.76h0A.8.8,0,0,1,74.78,20.85Z"/><path class="cls-1" d="M73,19.86a3,3,0,0,1-.36.56,2.88,2.88,0,0,1-.5.47l.08.2a1.08,1.08,0,0,0,.68-.28l.06-.07A1,1,0,0,0,73,19.86Zm0,.88-.06.06a1.06,1.06,0,0,1-.66.28l-.08-.19a2.49,2.49,0,0,0,.5-.47,3,3,0,0,0,.35-.54A1.05,1.05,0,0,1,73,20.74Z"/><path class="cls-1" d="M73.63,21.11a.65.65,0,0,0,.34-.3.62.62,0,0,0,.26.12h0A1,1,0,0,1,74,20.8a.62.62,0,0,1-.35.31,1.69,1.69,0,0,1,.35.49h0A1.72,1.72,0,0,0,73.63,21.11Z"/><path class="cls-1" d="M74.71,21.07a.25.25,0,0,1,0,.09h0a.28.28,0,0,0,0-.09Z"/><path class="cls-1" d="M74.39,21h0l-.16,0h0Z"/><path class="cls-1" d="M74,21.72a.69.69,0,0,0-.05-.13h0s0,.08,0,.13h0Z"/><path class="cls-1" d="M74.51,21.6a.49.49,0,0,1-.34.14h0a.5.5,0,0,0,.35-.14.74.74,0,0,0,.19-.45h0A.69.69,0,0,1,74.51,21.6Z"/><path class="cls-1" d="M74.57,21h.14v.09h0V21h-.15Z"/><path class="cls-1" d="M74,20.14s0-.06-.07-.06a1,1,0,0,1-.72.13,1,1,0,0,1-.09.49,2.84,2.84,0,0,1,.48.35h0A.7.7,0,0,0,74,20.14Zm-.38.89h0a2.91,2.91,0,0,0-.46-.34,1.06,1.06,0,0,0,.08-.48l.2,0a.93.93,0,0,0,.52-.15s0,0,0,.06a.77.77,0,0,1,0,.59A.54.54,0,0,1,73.57,21Z"/><path class="cls-1" d="M73,19.53a2.43,2.43,0,0,1-.46.83,2.45,2.45,0,0,1-.47.44L72,20.48a2.3,2.3,0,0,0,.51-.82l1.1-6.9,0-.27-1.14,7.16a2.3,2.3,0,0,1-.51.83l.14.34a2.93,2.93,0,0,0,.47-.45,2.35,2.35,0,0,0,.47-.84l.38-3.7h0Z"/><polygon class="cls-1" points="73.43 15.72 73.42 15.82 73.43 15.83 73.44 15.73 73.43 15.72"/><polygon class="cls-1" points="73.97 10.36 73.74 12.62 73.82 12.01 74.02 10.02 73.62 12.49 73.59 12.76 73.97 10.36"/><polygon class="cls-1" points="73.43 15.72 73.44 15.73 73.82 12.01 73.74 12.62 73.43 15.72"/><path class="cls-1" d="M76.46,23.84a2.81,2.81,0,0,1-2.81.52c-.6-.24-1.54-1.41-.66-2.19a.76.76,0,0,1,.76-.11s0,0,0,0l-.08,0a.79.79,0,0,0-.73.13,1.05,1.05,0,0,0-.36,1,1.94,1.94,0,0,0,1,1.28,2.53,2.53,0,0,0,1,.19,3.06,3.06,0,0,0,1.89-.71l.05-.05-.46-.2-.06,0Z"/><path class="cls-1" d="M75.81,23.56l.21.09.06,0-.19-.08Z"/><path class="cls-1" d="M73.93,22.16l0,0a.54.54,0,0,0-.18-.11s0,0,0,0A1,1,0,0,1,73.93,22.16Z"/><path class="cls-1" d="M73.34,23l-.06,0a.52.52,0,0,0,.6.06l0,0A.45.45,0,0,1,73.34,23Z"/><path class="cls-1" d="M76.37,23.86a2.75,2.75,0,0,1-2.7.46,1.84,1.84,0,0,1-1-1.22.93.93,0,0,1,.33-.9.61.61,0,0,1,.43-.15.83.83,0,0,1,.22,0l.06,0s0,0,0,0h0a.76.76,0,0,0-.76.11c-.88.78.06,1.95.66,2.19a2.81,2.81,0,0,0,2.81-.52L76,23.65l-.07,0Z"/><path class="cls-1" d="M73.28,23l.06,0,0,0s0,0-.06,0a0,0,0,0,0,0,.06.53.53,0,0,0,.66,0l0,0A.52.52,0,0,1,73.28,23Z"/><path class="cls-1" d="M73.73,22.11a.46.46,0,0,1,.17.09l0,0a1,1,0,0,0-.18-.1h0S73.74,22.08,73.73,22.11Z"/><path class="cls-1" d="M76,23.67l.07,0-.21-.09-.08,0Z"/><path class="cls-1" d="M73.87,23l0,0,0,0L74,23l0,0Z"/><path class="cls-1" d="M73.88,23l0,0h0L74,23l0,0Z"/><path class="cls-1" d="M74.12,22.44a.49.49,0,0,1,0,.37l1.73.75h.08l-1.75-.76a.57.57,0,0,0,0-.36.55.55,0,0,0-.22-.3l0,0A.51.51,0,0,1,74.12,22.44Z"/><path class="cls-1" d="M74.08,22.45a.48.48,0,0,1,0,.33h0v0h0a.49.49,0,0,0,0-.37.51.51,0,0,0-.19-.28l0,0A.49.49,0,0,1,74.08,22.45Z"/><path class="cls-1" d="M74,23l0,0,.09-.11,1.63.71.08,0-1.73-.75A.58.58,0,0,1,74,23Z"/><path class="cls-1" d="M74,22.82l-.09.12,0,0a.58.58,0,0,0,.11-.15H74Z"/><path class="cls-1" d="M71,24.52H71a.27.27,0,0,1,.18.11.31.31,0,0,1,0,.21c0,.13-.14.19-.28.19s-2.14-.26-3.28-.26a21.57,21.57,0,0,0-3.33.24.28.28,0,0,1-.35-.17.27.27,0,0,1,.21-.32l.17,0-.1-.1-.09,0a.4.4,0,0,0-.31.46.46.46,0,0,0,.07.16c-.42.06-.82.13-1.19.2l-.58.13a4.68,4.68,0,0,0-.67.21,2.6,2.6,0,0,1-.45.13h0a.17.17,0,0,1-.09-.09c0-.05,0-.2.11-.49l0,0L61,25h0a1.52,1.52,0,0,0-.73.68.69.69,0,0,0,.13.78l.13.14c.82.67.46,1.13.44,1.15v.05a.44.44,0,0,0,.12.32.5.5,0,0,0,.37.14,1.32,1.32,0,0,0,.53-.13L62.3,28a4.19,4.19,0,0,1,1.32-.38,35.3,35.3,0,0,1,4-.2,36.44,36.44,0,0,1,4.17.22,4.76,4.76,0,0,1,1.14.36h0l.28.11c.43.17.74.16.91,0a.54.54,0,0,0,.12-.32v0l0,0s-.32-.43.44-1.16l.16-.16a.67.67,0,0,0,.09-.76,1.5,1.5,0,0,0-.71-.67h0l0,.07,0,0c.16.29.14.43.11.49a.19.19,0,0,1-.07.08l-.11,0a6.08,6.08,0,0,0-.67-.2,10.13,10.13,0,0,0-1.12-.25l-1-.17a.33.33,0,0,0,.07-.16.39.39,0,0,0-.06-.3.36.36,0,0,0-.23-.15Zm1.31.8a9.63,9.63,0,0,1,1.11.25,5.86,5.86,0,0,1,.66.2l.14.05h0a.26.26,0,0,0,.16-.15.62.62,0,0,0-.06-.48,1.41,1.41,0,0,1,.56.65.53.53,0,0,1-.12.53,1.05,1.05,0,0,1-.15.15c-.78.76-.52,1.23-.46,1.31a.34.34,0,0,1-.09.23.4.4,0,0,1-.28.1h0a1.38,1.38,0,0,1-.5-.12L73,27.92a4.75,4.75,0,0,0-1.16-.36,35.17,35.17,0,0,0-4.19-.23,38,38,0,0,0-4,.2,4.59,4.59,0,0,0-1.35.39l-.32.13c-.37.14-.64.15-.78,0a.33.33,0,0,1-.09-.22c.06-.09.37-.62-.46-1.31l-.13-.13a.56.56,0,0,1-.14-.54,1.37,1.37,0,0,1,.57-.67.58.58,0,0,0-.06.48.26.26,0,0,0,.15.15h0a2.25,2.25,0,0,0,.48-.14,5,5,0,0,1,.66-.21l.58-.12a24.25,24.25,0,0,1,9.5,0Z"/><path class="cls-1" d="M67.66,24.23c.38,0,.76,0,1.12,0v-.11c-.37,0-.74,0-1.13,0s-.76,0-1.11,0v.11C66.9,24.24,67.27,24.23,67.66,24.23Z"/><path class="cls-1" d="M66.48,24.27h.08v-.11h-.08Z"/><path class="cls-1" d="M64.37,24.5l.1,0-.1-.09h-.1Z"/><path class="cls-1" d="M66.47,24.16a19.59,19.59,0,0,0-2.1.23l.1.09a18.83,18.83,0,0,1,2-.21Z"/><path class="cls-1" d="M71,24.41l-.1.09h0l.12,0,.09-.09H71Z"/><path class="cls-1" d="M68.87,24.27v-.11h-.09v.11Z"/><path class="cls-1" d="M70.84,24.5h0l.1-.09a19.21,19.21,0,0,0-2.07-.25v.11C69.55,24.32,70.21,24.39,70.84,24.5Z"/><polygon class="cls-1" points="61.84 26.31 61.94 26.76 61.56 26.37 61.4 26.4 61.56 27.16 61.72 27.12 61.63 26.68 61.99 27.06 62 27.06 62.16 27.02 62 26.27 61.84 26.31"/><path class="cls-1" d="M62.58,26.17h0l-.18,0-.15.82.18,0,0-.17.28-.05.09.15.19,0Zm-.09.47,0-.24.12.21Z"/><path class="cls-1" d="M63.38,26.38l0,.15.17,0v.07l-.07.05a.22.22,0,0,1-.24,0,.3.3,0,0,1-.08-.18.25.25,0,0,1,0-.18.17.17,0,0,1,.13-.08.2.2,0,0,1,.11,0,.13.13,0,0,1,.06.07h0l.17-.06h0a.28.28,0,0,0-.13-.15.42.42,0,0,0-.23,0,.48.48,0,0,0-.18.07.31.31,0,0,0-.12.16.41.41,0,0,0,0,.22.59.59,0,0,0,.07.2.31.31,0,0,0,.16.12.32.32,0,0,0,.14,0h.08a.64.64,0,0,0,.18-.06.42.42,0,0,0,.12-.1h0l-.05-.31Z"/><path class="cls-1" d="M64.24,25.92h0l-.18,0-.2.8.18,0,0-.18.27,0,.09.16.19,0Zm-.12.47.06-.24.11.22Z"/><path class="cls-1" d="M65.67,25.78l-.25.79-.11-.15c0-.06-.08-.09-.1-.12l-.06,0a.2.2,0,0,0,.12-.08.19.19,0,0,0,0-.15.19.19,0,0,0,0-.12l-.1-.07a.53.53,0,0,0-.18,0l-.33,0,.07.77.18,0,0-.31H65s0,0,0,0a.3.3,0,0,1,.09.1l.13.15.21,0h.18l0-.17.28,0,.08.17.19,0-.36-.75Zm-.55.33,0,0-.13,0h-.09l0-.16h.21l0,0s0,0,0,0S65.12,26.1,65.12,26.11Zm.59.12.06-.23.1.22Z"/><path class="cls-1" d="M67.11,25.81a.19.19,0,0,0-.12-.07h-.43l0,.76h.3l.13,0a.23.23,0,0,0,.11-.07.22.22,0,0,0,.08-.14.39.39,0,0,0,0-.16.48.48,0,0,0,0-.18A.25.25,0,0,0,67.11,25.81Zm-.08.43s0,.06,0,.07l0,0h-.19v-.47h.18l.06,0A.09.09,0,0,1,67,26a.39.39,0,0,1,0,.13A.45.45,0,0,1,67,26.24Z"/><path class="cls-1" d="M67.29,26.49h.19l.06-.17h.28l.06.17h.2l-.31-.77h-.18Zm.38-.55.09.23h-.17Z"/><polygon class="cls-1" points="68.33 26.04 68.6 26.5 68.78 26.51 68.8 25.73 68.63 25.73 68.62 26.2 68.35 25.73 68.34 25.72 68.18 25.72 68.16 26.49 68.32 26.5 68.33 26.04"/><path class="cls-1" d="M69.12,26.35l.28,0,.06.17h.19l-.27-.78h0l-.17,0-.35.76h.19Zm.16-.37.07.23h-.17Z"/><path class="cls-1" d="M70.22,26.29h0l.07,0a.05.05,0,0,1,0,0l.07.11.09.18.21,0,.19,0,.08-.16.28,0,0,.17.19,0-.21-.8h0l-.18,0-.39.73-.09-.17-.07-.14,0-.05a.21.21,0,0,0,.13-.05.2.2,0,0,0,.06-.14.19.19,0,0,0,0-.13.24.24,0,0,0-.08-.09.66.66,0,0,0-.18,0l-.33,0-.07.76h0l.17,0Zm1-.13.06.23-.17,0ZM70.25,26h.11c.07,0,.1,0,.1,0l.05,0a.13.13,0,0,1,0,.06s0,0,0,.05l0,0h-.23Z"/><polygon class="cls-1" points="71.79 26.56 71.92 26.47 72.06 26.84 72.28 26.87 72.06 26.36 72.4 26.11 72.16 26.07 71.83 26.33 71.88 26.03 71.7 26 71.58 26.76 71.76 26.79 71.79 26.56"/><path class="cls-1" d="M72.45,26.81a.27.27,0,0,0,.07.08h0l0,0h.07l0,0s0,0,0,0a0,0,0,0,1,0,0s0,0-.07,0l-.09,0,0,.06.09,0a.18.18,0,0,0,.14,0,.06.06,0,0,0,.06-.05.08.08,0,0,0,0-.08h.08a.28.28,0,0,0,.13,0,.36.36,0,0,0,.15-.17h0l-.16-.08h0a.16.16,0,0,1-.08.1.15.15,0,0,1-.09,0,.15.15,0,0,1-.11-.08.34.34,0,0,1,.07-.37.14.14,0,0,1,.13,0,.16.16,0,0,1,.09.05.12.12,0,0,1,0,.09h.18a.38.38,0,0,0,0-.16.37.37,0,0,0-.21-.12.38.38,0,0,0-.28.05.46.46,0,0,0-.16.28A.42.42,0,0,0,72.45,26.81Z"/><path class="cls-1" d="M73.05,27l.18,0,.1-.15.27.06,0,.18.19,0-.13-.81h0l-.18,0-.45.67Zm.5-.45,0,.24-.16,0Z"/><path class="cls-1" d="M64.06,12.6h0a1.1,1.1,0,0,1,.11-.71c.15-.25.59-.46.59-.8,0,.39.2.78-.06,1.12a.91.91,0,0,1-.35.3l-.26.11h0v0l.26-.1a1,1,0,0,0,.37-.32,1,1,0,0,0,.1-.83c0-.1,0-.21,0-.31s0,0,0,0a0,0,0,0,0,0,0c0,.2-.17.35-.33.5a1.18,1.18,0,0,0-.26.29,1.11,1.11,0,0,0-.11.75h0S64,12.6,64.06,12.6Z"/><path class="cls-1" d="M64.7,12.21c.26-.34.08-.73.06-1.12,0,.34-.44.55-.59.8a1.1,1.1,0,0,0-.11.71s0,0,0,0l.26-.11A.91.91,0,0,0,64.7,12.21Zm-.61.37a1.07,1.07,0,0,1,.11-.67,1.23,1.23,0,0,1,.25-.27,1.64,1.64,0,0,0,.3-.35.5.5,0,0,0,0,.12,1,1,0,0,1-.1.78.84.84,0,0,1-.34.29Z"/><path class="cls-1" d="M63.92,11.26a1.13,1.13,0,0,1,.11-.7c.15-.26.59-.47.59-.8,0,.38.2.77-.05,1.12a1,1,0,0,1-.36.3l-.25.1v0l.27-.11a1,1,0,0,0,.37-.31,1,1,0,0,0,.11-.83,1.76,1.76,0,0,1,0-.31,0,0,0,0,0,0,0s0,0,0,0c0,.19-.17.34-.33.49a1.7,1.7,0,0,0-.26.29,1.17,1.17,0,0,0-.11.75h0Z"/><path class="cls-1" d="M64.57,10.88c.25-.35.07-.74.05-1.12,0,.33-.44.54-.59.8a1.13,1.13,0,0,0-.11.7h0s0,0,0,0l.25-.1A1,1,0,0,0,64.57,10.88Zm-.61.36a1,1,0,0,1,.1-.67,1.5,1.5,0,0,1,.25-.26,1.4,1.4,0,0,0,.3-.35s0,.08,0,.12a1,1,0,0,1-.09.78,1,1,0,0,1-.34.29Z"/><path class="cls-1" d="M64.13,14a1.07,1.07,0,0,1,.12-.7c.14-.25.58-.46.59-.8,0,.38.19.78-.06,1.12a1,1,0,0,1-.36.3l-.24.1v0h0l.27-.11a.88.88,0,0,0,.37-.31,1.05,1.05,0,0,0,.1-.83,1.65,1.65,0,0,1,0-.31s0,0,0,0a0,0,0,0,0,0,0c0,.2-.17.35-.33.5a1.07,1.07,0,0,0-.25.28,1.09,1.09,0,0,0-.12.76h0s0,0,0,0Z"/><path class="cls-1" d="M64.78,13.64c.25-.34.07-.74.06-1.12,0,.34-.45.55-.59.8a1.07,1.07,0,0,0-.12.7h0l0,0,.24-.1A1,1,0,0,0,64.78,13.64Zm-.61.37a1,1,0,0,1,.11-.67,1.17,1.17,0,0,1,.24-.27,1.22,1.22,0,0,0,.3-.35s0,.08,0,.12a1,1,0,0,1-.09.78.91.91,0,0,1-.34.29Z"/><path class="cls-1" d="M64.29,15.42a1,1,0,0,1,.11-.65c.15-.26.59-.47.59-.8,0,.38.2.77,0,1.12a1,1,0,0,1-.36.3l-.25.1v0l.26-.11a1,1,0,0,0,.37-.31,1,1,0,0,0,.1-.84A3,3,0,0,1,65,14a0,0,0,0,0,0,0s0,0,0,0c0,.19-.17.34-.33.49a1.7,1.7,0,0,0-.26.29,1.14,1.14,0,0,0-.11.76h0s0,0,0-.07Z"/><path class="cls-1" d="M64.94,15.09c.25-.35.07-.74,0-1.12,0,.33-.44.54-.59.8a1,1,0,0,0-.11.65h0a1,1,0,0,1,.11-.64,1.23,1.23,0,0,1,.25-.27,1.38,1.38,0,0,0,.3-.34.36.36,0,0,0,0,.11,1,1,0,0,1-.09.78.9.9,0,0,1-.34.29l-.23.1s0,0,0,0l.25-.1A1,1,0,0,0,64.94,15.09Z"/><path class="cls-1" d="M64.56,16.74a1,1,0,0,1,.11-.69c.15-.25.59-.46.59-.8,0,.39.2.78-.06,1.12a.83.83,0,0,1-.35.3l-.24.1s0,0,0,0,0,0,0,0l.28-.11a1.06,1.06,0,0,0,.37-.31,1,1,0,0,0,.1-.84c0-.1,0-.21,0-.31h-.07c0,.2-.16.35-.32.5a1.36,1.36,0,0,0-.26.29,1.14,1.14,0,0,0-.12.74s0,0,0,0Z"/><path class="cls-1" d="M65.2,16.37c.26-.34.08-.73.06-1.12,0,.34-.44.55-.59.8a1,1,0,0,0-.11.69h0a1.07,1.07,0,0,1,.11-.67,1.46,1.46,0,0,1,.24-.27,1.22,1.22,0,0,0,.3-.35.5.5,0,0,1,0,.12.92.92,0,0,1-.09.78.83.83,0,0,1-.34.29l-.24.1s0,0,0,0l.24-.1A.83.83,0,0,0,65.2,16.37Z"/><path class="cls-1" d="M64.59,18.25a1,1,0,0,1,.12-.67c.14-.26.58-.47.59-.8,0,.38.19.77-.06,1.12a1,1,0,0,1-.36.3c-.06,0-.19,0-.24.08v0a0,0,0,0,0,0,0s.09,0,.15,0l.1,0a.9.9,0,0,0,.47-1.14c0-.11,0-.21,0-.31a0,0,0,0,0,0,0,0,0,0,0,0,0,0c0,.19-.17.35-.33.49a1.29,1.29,0,0,0-.25.29,1.14,1.14,0,0,0-.12.76h0v0S64.58,18.25,64.59,18.25Z"/><path class="cls-1" d="M64.88,18.2a1,1,0,0,0,.36-.3c.25-.35.07-.74.06-1.12,0,.33-.45.54-.59.8a1,1,0,0,0-.12.67h0s0,0,0,0h0C64.69,18.23,64.82,18.22,64.88,18.2Zm-.26,0a1.05,1.05,0,0,1,.12-.64,1,1,0,0,1,.24-.27,1.22,1.22,0,0,0,.3-.35s0,.08,0,.12a1,1,0,0,1-.09.78,1,1,0,0,1-.34.29l-.09,0A.38.38,0,0,0,64.62,18.24Z"/><path class="cls-1" d="M64.82,19.88a1.12,1.12,0,0,1,.11-.7c.15-.26.59-.47.59-.8,0,.38.2.77-.06,1.12a.92.92,0,0,1-.35.3l-.27.1a0,0,0,0,1,0,0h0l.28-.11a1,1,0,0,0,.37-.31,1,1,0,0,0,.11-.84,1.55,1.55,0,0,1,0-.31s0,0,0,0,0,0,0,0c0,.19-.17.34-.33.49a1.7,1.7,0,0,0-.26.29,1.14,1.14,0,0,0-.11.74h0Z"/><path class="cls-1" d="M65.46,19.5c.26-.35.08-.74.06-1.12,0,.33-.44.54-.59.8a1.12,1.12,0,0,0-.11.7,0,0,0,0,1,0,0l.27-.1A.92.92,0,0,0,65.46,19.5Zm-.61.36a1.07,1.07,0,0,1,.11-.67,1.54,1.54,0,0,1,.25-.27,1.38,1.38,0,0,0,.3-.34l0,.11a1,1,0,0,1-.09.78.9.9,0,0,1-.34.29Z"/><path class="cls-1" d="M65.32,20.86a1.07,1.07,0,0,1,.11-.72c.14-.25.59-.46.59-.8,0,.39.2.78-.06,1.12a.87.87,0,0,1-.36.3l-.26.11a0,0,0,0,1,0,0h0l.27-.11a1,1,0,0,0,.37-.32,1,1,0,0,0,.1-.83c0-.1,0-.21,0-.31a0,0,0,0,0,0,0s0,0,0,0c0,.2-.16.35-.33.5a1.11,1.11,0,0,0-.25.29,1.18,1.18,0,0,0-.12.75S65.3,20.85,65.32,20.86Z"/><path class="cls-1" d="M66,20.46c.26-.34.07-.73.06-1.12,0,.34-.45.55-.59.8a1.07,1.07,0,0,0-.11.72s0,0,0,0l.26-.11A.87.87,0,0,0,66,20.46Zm-.61.37a1.07,1.07,0,0,1,.11-.67,1.17,1.17,0,0,1,.24-.27,1.22,1.22,0,0,0,.3-.35s0,.08,0,.12a.93.93,0,0,1-.09.78.91.91,0,0,1-.34.29Z"/><path class="cls-1" d="M63.19,13.11h0l-.18,0a.81.81,0,0,1-.41-.21c-.33-.27-.25-.69-.32-1.07.08.32.56.42.76.64a1.05,1.05,0,0,1,.27.67l0,0h0a1.11,1.11,0,0,0-.29-.71,1.23,1.23,0,0,0-.31-.22c-.2-.11-.39-.22-.44-.41,0,0,0,0,0,0s0,0,0,0a2.91,2.91,0,0,1,0,.31.91.91,0,0,0,.73,1l.2,0A.05.05,0,0,1,63.19,13.11Z"/><path class="cls-1" d="M62.28,11.8c.07.38,0,.8.32,1.07a.81.81,0,0,0,.41.21l.18,0s0,0,0,0l.08,0a1.05,1.05,0,0,0-.27-.67C62.84,12.22,62.36,12.12,62.28,11.8ZM63,13.05a.84.84,0,0,1-.67-.94s0-.08,0-.12a1.31,1.31,0,0,0,.37.27,1.2,1.2,0,0,1,.3.2,1.14,1.14,0,0,1,.27.63Z"/><path class="cls-1" d="M63.16,11.89c0-.07-.19-.13-.25-.18a.93.93,0,0,1-.28-.37c-.17-.39.09-.74.2-1.1-.08.32.31.63.39.91a1,1,0,0,1,0,.61s0,0,0,0a1,1,0,0,0,0-.64,1.25,1.25,0,0,0-.18-.34.8.8,0,0,1-.21-.55,0,0,0,0,0,0-.05s0,0,0,0-.07.19-.11.29a1,1,0,0,0-.09.83.91.91,0,0,0,.28.39l.09,0c.06,0,.15.08.15.11l0,0h0a.11.11,0,0,0,0-.05Z"/><path class="cls-1" d="M63.22,11.15c-.08-.28-.47-.59-.39-.91-.11.36-.37.71-.2,1.1a.93.93,0,0,0,.28.37c.06,0,.23.11.25.18v-.1a0,0,0,0,1,0,0h0A1,1,0,0,0,63.22,11.15Zm-.07.67a.67.67,0,0,0-.14-.09l-.08,0a.92.92,0,0,1-.27-.36,1,1,0,0,1,.09-.78,1.17,1.17,0,0,1,0-.11,1.19,1.19,0,0,0,.21.4,1.16,1.16,0,0,1,.18.32A1.05,1.05,0,0,1,63.15,11.82Z"/><path class="cls-1" d="M63.46,14.57l-.23,0a1,1,0,0,1-.42-.21c-.33-.28-.25-.7-.32-1.08.08.33.56.43.76.64a1.09,1.09,0,0,1,.28.65l0,0a1.1,1.1,0,0,0-.28-.69,1.29,1.29,0,0,0-.32-.22c-.19-.11-.39-.22-.43-.41,0,0,0,0,0,0s0,0,0,0a1.63,1.63,0,0,1,0,.31,1,1,0,0,0,.3.78.85.85,0,0,0,.43.22l.3,0,0,0S63.47,14.59,63.46,14.57Z"/><path class="cls-1" d="M62.49,13.25c.07.38,0,.8.32,1.08a1,1,0,0,0,.42.21l.23,0h0s0,0,0,0l-.25,0a.89.89,0,0,1-.4-.2.94.94,0,0,1-.27-.74.49.49,0,0,0,0-.12,1.53,1.53,0,0,0,.38.27,1.76,1.76,0,0,1,.3.21,1,1,0,0,1,.26.62h0a1.09,1.09,0,0,0-.28-.65C63.05,13.68,62.57,13.58,62.49,13.25Z"/><path class="cls-1" d="M63,15.69a1.17,1.17,0,0,0,.43.22l.31,0h0s0,0,0,0a1.13,1.13,0,0,0-.29-.71,1.11,1.11,0,0,0-.32-.21c-.19-.11-.38-.22-.43-.41,0,0,0,0,0,0a.05.05,0,0,0,0,0c0,.11,0,.21,0,.31A1,1,0,0,0,63,15.69Zm-.29-1.1c.08.32.55.42.76.64a1.15,1.15,0,0,1,.28.69l-.31-.05a.88.88,0,0,1-.42-.21C62.73,15.39,62.82,15,62.75,14.59Z"/><path class="cls-1" d="M63.48,15.87l.31.05a1.15,1.15,0,0,0-.28-.69c-.21-.22-.68-.32-.76-.64.07.37,0,.8.31,1.07A.88.88,0,0,0,63.48,15.87Zm-.66-1v-.12a1.31,1.31,0,0,0,.37.27,1,1,0,0,1,.3.2,1,1,0,0,1,.26.63l-.25,0a.89.89,0,0,1-.4-.2A1,1,0,0,1,62.82,14.9Z"/><path class="cls-1" d="M63.94,17.33l-.28,0a.9.9,0,0,1-.43-.18c-.34-.25-.29-.68-.38-1.05.1.32.58.39.8.59a1.08,1.08,0,0,1,.31.63h0a1.1,1.1,0,0,0-.33-.67,1.15,1.15,0,0,0-.33-.19c-.2-.1-.4-.2-.46-.38,0,0,0,0,0,0a.05.05,0,0,0,0,0c0,.1,0,.2.06.3a1,1,0,0,0,.34.77,1.15,1.15,0,0,0,.45.19l.31,0,0,0Z"/><path class="cls-1" d="M62.85,16.07c.09.37,0,.8.38,1.05a.9.9,0,0,0,.43.18l.28,0a.06.06,0,0,1,0,0h0a1.08,1.08,0,0,0-.31-.63C63.43,16.46,63,16.39,62.85,16.07Zm.82,1.2a1,1,0,0,1-.42-.18.94.94,0,0,1-.31-.72s0-.07,0-.11a1.51,1.51,0,0,0,.39.24,1.27,1.27,0,0,1,.31.18,1.06,1.06,0,0,1,.31.61Z"/><path class="cls-1" d="M64,18.82l-.26-.08a.84.84,0,0,1-.38-.27c-.29-.31-.14-.72-.16-1.1,0,.33.49.5.66.74a1.06,1.06,0,0,1,.17.67h0a1,1,0,0,0-.46-1c-.18-.14-.36-.28-.37-.47,0,0,0,0,0,0s0,0,0,0,0,.21,0,.31a1,1,0,0,0,.17.82,1,1,0,0,0,.4.28l.29.09h0l0,0Z"/><path class="cls-1" d="M63.84,18.11c-.17-.24-.63-.41-.66-.74,0,.38-.13.79.16,1.1a.84.84,0,0,0,.38.27l.26.08a.06.06,0,0,1,0,0h0A1.06,1.06,0,0,0,63.84,18.11Zm-.11.6a1,1,0,0,1-.37-.26,1,1,0,0,1-.15-.77v-.12a1.44,1.44,0,0,0,.33.32,1.1,1.1,0,0,1,.27.25,1.07,1.07,0,0,1,.17.66Z"/><path class="cls-1" d="M64.19,20a1,1,0,0,1-.44-.16c-.35-.23-.32-.67-.44-1,.12.31.61.36.83.55a1,1,0,0,1,.34.58s0,0,0,0h0a1.11,1.11,0,0,0-.35-.63,1.15,1.15,0,0,0-.35-.18c-.2-.08-.41-.17-.47-.35a0,0,0,0,0-.05,0s0,0,0,0,0,.2.07.3a1,1,0,0,0,.39.75.82.82,0,0,0,.45.16h.32l0,0Z"/><path class="cls-1" d="M64.14,19.39c-.22-.19-.71-.24-.83-.55.12.36.09.8.44,1a1,1,0,0,0,.44.16h.28s0,0,0,0,0,0,0,0h-.26a.86.86,0,0,1-.42-.15,1,1,0,0,1-.35-.7.5.5,0,0,1,0-.12,1.18,1.18,0,0,0,.4.22,1.58,1.58,0,0,1,.32.17,1.07,1.07,0,0,1,.33.59l0,0h0A1,1,0,0,0,64.14,19.39Z"/><path class="cls-1" d="M65.09,21.09l-.28,0a.92.92,0,0,1-.46-.08c-.39-.17-.43-.6-.61-.94.17.29.66.25.92.39a1.06,1.06,0,0,1,.44.56h0a1.12,1.12,0,0,0-.47-.59,1.7,1.7,0,0,0-.36-.11.78.78,0,0,1-.54-.27s0,0,0,0a0,0,0,0,0,0,.05c0,.09.09.19.13.28a.91.91,0,0,0,.9.76h.08l.29,0S65.09,21.1,65.09,21.09Z"/><path class="cls-1" d="M64.66,20.5c-.26-.14-.75-.1-.92-.39.18.34.22.77.61.94a.92.92,0,0,0,.46.08l.28,0s0,0,0,0A1.06,1.06,0,0,0,64.66,20.5Zm.41.56-.26,0h-.07a1,1,0,0,1-.37-.08,1,1,0,0,1-.47-.63s0-.08,0-.12a1.22,1.22,0,0,0,.43.15,1.44,1.44,0,0,1,.35.11A1.1,1.1,0,0,1,65.07,21.06Z"/><path class="cls-1" d="M63.58,10.56c-.3-.12-.42-.59-.41-.88s.32-.69.32-1.06c0,.36.3.65.32,1a3.52,3.52,0,0,1-.21.92h0c0-.07,0-.15.07-.24a1.9,1.9,0,0,0,.13-.67,1.3,1.3,0,0,0-.16-.48,1.21,1.21,0,0,1-.16-.46V8.61h-.07v.08a1.21,1.21,0,0,1-.15.44,1.3,1.3,0,0,0-.16.55c0,.29.1.79.43.92v0Z"/><path class="cls-1" d="M63.49,8.62c0,.37-.31.67-.32,1.06s.11.76.41.88h0a3.52,3.52,0,0,0,.21-.92C63.79,9.27,63.45,9,63.49,8.62Zm.08,1.9c-.26-.12-.37-.56-.36-.84a1.26,1.26,0,0,1,.16-.52,2.33,2.33,0,0,0,.11-.28,1.94,1.94,0,0,0,.13.3,1.06,1.06,0,0,1,.16.45,1.84,1.84,0,0,1-.13.65C63.62,10.36,63.59,10.44,63.57,10.52Z"/><path class="cls-1" d="M63.45,12.14a.37.37,0,0,1-.22-.35h0s0,.08,0,.12l0,0a.51.51,0,0,0,.24.28.87.87,0,0,1,.14.12l-.08-.16Z"/><path class="cls-1" d="M63.19,11.9s0-.08,0-.12,0,0,0,0a.76.76,0,0,1,0,.11.11.11,0,0,1,0,.05Z"/><path class="cls-1" d="M63.16,11.79v.08a.76.76,0,0,0,0-.11h0A0,0,0,0,0,63.16,11.79Z"/><path class="cls-1" d="M63.65,13.27h0c.37-.08.5-.26.45-.62H64s0,0,0,0h0c0,.32,0,.47-.32.55v0Z"/><path class="cls-1" d="M64.06,12.66h0v0h0v0h0s0,0,0,0,0,0,0,0Z"/><path class="cls-1" d="M64.06,12.6v0h0S64.07,12.59,64.06,12.6Z"/><path class="cls-1" d="M63.56,14.56v0h0a.77.77,0,0,1,.45.63L64,15A.8.8,0,0,0,63.56,14.56Z"/><path class="cls-1" d="M63.49,14.54h0Z"/><path class="cls-1" d="M63.53,14.62h0v0l0,0v0h-.07s0,0,0,0l0,0Z"/><path class="cls-1" d="M63.49,14.54h0s0,0,0,0h.07v0h0Z"/><path class="cls-1" d="M64.08,14.56a.71.71,0,0,0,0-.24,1.14,1.14,0,0,1,0-.24h0l0,0a1.32,1.32,0,0,0,0,.26.78.78,0,0,1,0,.14.56.56,0,0,1,0,.12Z"/><path class="cls-1" d="M64.14,14.09h0v0l0,0v0l0,0s0,0,0,0l0,0Z"/><path class="cls-1" d="M64.16,14h0v0l0,0Z"/><path class="cls-1" d="M63.35,13.13a0,0,0,0,1,0,0h0l-.1,0h0c.19,0,.21.12.24.29l0,.06,0-.16A.3.3,0,0,0,63.35,13.13Z"/><path class="cls-1" d="M63.32,13.17h0a0,0,0,0,0,0,0l0,0v0l-.13,0h0a.05.05,0,0,0,0,0l.1,0Z"/><path class="cls-1" d="M63.19,13.11l.13,0v0l-.08,0S63.2,13.1,63.19,13.11Z"/><path class="cls-1" d="M64.12,15.75l.08-.07a.32.32,0,0,0,.13-.15h-.06v0a.31.31,0,0,1-.11.12l-.08.08a.57.57,0,0,0-.13.21c0,.06,0,.14,0,.22A.52.52,0,0,1,64.12,15.75Z"/><path class="cls-1" d="M64.34,15.45h0l0,0v0Z"/><path class="cls-1" d="M64.29,15.54h0v0h0v-.08l0,0s0,.05,0,.07v0Z"/><path class="cls-1" d="M64.32,15.45v0h0v.08h0s0,0,0,0Z"/><path class="cls-1" d="M64.4,17.06a.42.42,0,0,1,.11-.16l.07-.08h0l0,0v-.05h0l-.06.07-.08.09a.36.36,0,0,1,0,.1Z"/><polygon class="cls-1" points="64.59 16.74 64.59 16.74 64.59 16.74 64.59 16.74 64.59 16.74"/><path class="cls-1" d="M64.53,16.84l0,0h0s0,0,0,0,0,0,0,0l0,0v-.05h0s0,0,0,0h0Z"/><path class="cls-1" d="M64.59,16.74h0v.05l0,0S64.61,16.75,64.59,16.74Z"/><path class="cls-1" d="M64,17.3v0s0,0,0,0l0,0h0a.25.25,0,0,0,.18.06h.09l0-.07C64.15,17.37,64.06,17.37,64,17.3Z"/><path class="cls-1" d="M64,17.37l0,0s0,0,0,0v0h0v0h0l0,0Z"/><path class="cls-1" d="M63.94,17.33h0v0h0A.06.06,0,0,0,63.94,17.33Z"/><path class="cls-1" d="M64.36,18.81a.43.43,0,0,0,.28-.48h-.06s0,0,0,0c0,.15,0,.38-.24.42h0l0,0Z"/><path class="cls-1" d="M64.6,18.35h0v0a0,0,0,0,0,0,0h0a.13.13,0,0,1,0-.06s0,0,0,0v0s0,0,0,0Z"/><path class="cls-1" d="M64.6,18.24h0a.13.13,0,0,0,0,.06h0a0,0,0,0,1,0,0h0S64.62,18.24,64.6,18.24Z"/><path class="cls-1" d="M64.52,20v0a0,0,0,0,1,0,0h0l.08,0,.11,0a.25.25,0,0,0,0-.07S64.56,20,64.52,20Z"/><polygon class="cls-1" points="64.45 20 64.45 20 64.45 20 64.45 20"/><path class="cls-1" d="M64.53,20v0h0s0,0,0,0l0,.07h0l0,0h0A0,0,0,0,0,64.53,20Z"/><path class="cls-1" d="M64.45,20h0s0,0,0,0,0,0,0,0h0l0-.07h0Z"/><path class="cls-1" d="M64.34,18.91a.28.28,0,0,1-.29-.11v0s0,0,0,0h0a.33.33,0,0,0,.27.12h.1Z"/><path class="cls-1" d="M64.05,18.83v0h0v0h0l0,0h0S64.05,18.84,64.05,18.83Z"/><path class="cls-1" d="M64,18.82h0v0h0A.06.06,0,0,0,64,18.82Z"/><path class="cls-1" d="M64.84,19.94h0a0,0,0,0,1,0,0v0l0,0a.25.25,0,0,1,0,.07Z"/><path class="cls-1" d="M64.81,19.94h0a0,0,0,0,0,0,0h0v0h0v0A0,0,0,0,0,64.81,19.94Z"/><path class="cls-1" d="M64.82,19.88v0h0A0,0,0,0,0,64.82,19.88Z"/><path class="cls-1" d="M63.56,11.56h.07a.31.31,0,0,0,.32-.25h0l0,0h0a.26.26,0,0,1-.32.2h0s0,0,0,.07Z"/><path class="cls-1" d="M63.91,11.32h0v0h0a0,0,0,0,1,0,0l0,0h0Z"/><path class="cls-1" d="M63.93,11.26h0a0,0,0,0,0,0,0h0S64,11.26,63.93,11.26Z"/><path class="cls-1" d="M64.72,20l0,0a2.17,2.17,0,0,1,0-.41,1.19,1.19,0,0,0-.25-.61l-.09-.11s0,0,0,0h0s0,0,0,0l0,0a1.09,1.09,0,0,1-.22-.36.9.9,0,0,1,.09-.67,1.5,1.5,0,0,0,.21-.67.19.19,0,0,0,0,.08s0,0,0,0h0s0,0,0,0a.29.29,0,0,1,.06-.21,1,1,0,0,0-.17-.33,1.2,1.2,0,0,1-.13-.21,1.06,1.06,0,0,1-.1-.26h0s0,0,0,0h0a0,0,0,0,1,0,0,.48.48,0,0,1,0-.24,1.57,1.57,0,0,1,.07-.49,2.66,2.66,0,0,0,.08-.44,1.76,1.76,0,0,0,0-.41h0s0,0,0,0,0,0,0-.08a.72.72,0,0,0-.09-.2,2.09,2.09,0,0,0-.19-.21.47.47,0,0,1-.19-.43.59.59,0,0,1,.09-.35h0s0,0,0,0,0,0,0,0l.07,0a.41.41,0,0,0,.11-.29,1.08,1.08,0,0,0-.17-.56.94.94,0,0,1-.13-.77h0s0,0,0,0a0,0,0,0,1,0,0h0a1.08,1.08,0,0,1,.08-.19.29.29,0,0,1,.07-.08.3.3,0,0,0,.09-.22.58.58,0,0,0-.09-.33.5.5,0,0,1,0-.13v.08l0,0h0s0,.07,0,.1a.6.6,0,0,1,.08.29.25.25,0,0,1-.07.17.29.29,0,0,0-.08.1,1.1,1.1,0,0,0-.13.71,1.05,1.05,0,0,0,0,.19.44.44,0,0,1,.17.19s0,0,0,0h0s0,0,0,0l0,0,0,0a1.09,1.09,0,0,1,.16.52.37.37,0,0,1-.11.26.87.87,0,0,0-.12.2.31.31,0,0,1,0,.08s0,.05,0,.07,0,0,0,0h0l0,0h0s0,.07,0,.11a.56.56,0,0,0,.22.49.9.9,0,0,1,.18.2A1,1,0,0,1,64,15s0,0,0,.06a.85.85,0,0,1,0,.22,0,0,0,0,1,0,0h0a0,0,0,0,1,0,0h0a.94.94,0,0,0,0,.16,1.27,1.27,0,0,0,.07,1,1.64,1.64,0,0,0,.14.22.74.74,0,0,1,.18.39,1,1,0,0,1,0,.3h0s0,0,0,0,0,0,0,0h-.07a1.69,1.69,0,0,1-.12.27,1,1,0,0,0-.1.73,1.3,1.3,0,0,0,.26.43l.06.06h.08s0,0,0,0,0,0,0,0h0a1.06,1.06,0,0,1,.22.55,3.58,3.58,0,0,0,.07.47h0A0,0,0,0,1,64.72,20Z"/><path class="cls-1" d="M65.31,21a.56.56,0,0,1,0-.12h0s0,0,0,0h0l0,.08c-.06-.1-.12-.19-.16-.27a.81.81,0,0,1-.14-.24q-.06-.16-.12-.3l0,0a.23.23,0,0,1,0-.1l0,0s0,0,0,0h0l0,.08,0,0a2.36,2.36,0,0,1,.12.28,2.43,2.43,0,0,0,.14.27l.21.33h-.07s0,0,0,0,0,0,0,0h0a.2.2,0,0,0,.15,0h0a.86.86,0,0,1,.24.39h0a.76.76,0,0,0,.13.23l.15,0C65.58,21.49,65.65,21.32,65.31,21Z"/><path class="cls-1" d="M65.77,21.86s.07,0,0-.07h0l-.15,0Z"/><path class="cls-1" d="M65.3,20.91h0a0,0,0,0,0,0,0h0v0s0,0,0,0h0S65.29,20.9,65.3,20.91Z"/><path class="cls-1" d="M65.32,20.86v0h0S65.33,20.86,65.32,20.86Z"/><path class="cls-1" d="M65.15,21.1s0,0,0,0H65.1l0,0h0s0,0,0,0h0S65.14,21.11,65.15,21.1Z"/><path class="cls-1" d="M65.09,21.09h0l0,0S65.09,21.08,65.09,21.09Z"/><path class="cls-1" d="M63.62,10.62v-.08h0v0h0v0h0Z"/><path class="cls-1" d="M63.59,10.57v0h0Z"/><path class="cls-1" d="M63.61,12.39h0s0,0,0,0a.44.44,0,0,0-.17-.19l.08.16,0,0S63.6,12.39,63.61,12.39Z"/><path class="cls-1" d="M63.61,13.24s0,0,0,0h0l.05-.07v0l-.07,0S63.61,13.22,63.61,13.24Z"/><path class="cls-1" d="M64,15.3h0a0,0,0,0,0,0,0A.85.85,0,0,0,64,15l0,.21h0A0,0,0,0,0,64,15.3Z"/><path class="cls-1" d="M64,14.58h0a.56.56,0,0,0,0-.12s0,0,0,.08S64,14.58,64,14.58Z"/><path class="cls-1" d="M63.51,13.54h0s0,0,0,0,0-.05,0-.07a.31.31,0,0,0,0-.08l0,.16h0Z"/><path class="cls-1" d="M63.94,16.19h0s0,0,0,0h0c0-.08,0-.16,0-.22a.48.48,0,0,0,0,.24A0,0,0,0,0,63.94,16.19Z"/><path class="cls-1" d="M64.36,17.18h0s0,0,0,0a.19.19,0,0,1,0-.08v0a.36.36,0,0,0,0-.1.29.29,0,0,0-.06.21S64.34,17.18,64.36,17.18Z"/><path class="cls-1" d="M64.31,17.42s0,0,0,0,0,0,0,0h0l0,.07h.07Z"/><path class="cls-1" d="M64.3,18.79s0,0,0,0h0s0,0,0,0v0l0,0Z"/><path class="cls-1" d="M64.74,20h0s0,0,0,0h0a.25.25,0,0,1,0,.07h0S64.74,20,64.74,20Z"/><path class="cls-1" d="M64.46,18.94s0,0,0,0h-.08l0,.06h0S64.46,19,64.46,18.94Z"/><path class="cls-1" d="M64.68,20h0a0,0,0,0,1,0,0h0l0,0a.25.25,0,0,0,0-.07l0,0A0,0,0,0,0,64.68,20Z"/><path class="cls-1" d="M64.69,20h0s0,0,0,0h0A0,0,0,0,0,64.69,20Z"/><path class="cls-1" d="M63.47,11.53s0,0,0,0h0s0-.05,0-.07h0A0,0,0,0,0,63.47,11.53Z"/><path class="cls-1" d="M71.37,10.2a1.28,1.28,0,0,1-.08-.77,1.63,1.63,0,0,1,.22.34l0,.07,0-.07,0-.08a1.18,1.18,0,0,1,.29-.41.73.73,0,0,1,.25.48V9.9l0-.13,0-.09a.8.8,0,0,1,.27-.4,1.21,1.21,0,0,1,.2.52v.1l.06-.08a.62.62,0,0,1,.29-.25.93.93,0,0,1-.35.79.35.35,0,0,1-.12.07.14.14,0,0,1,0,.06h0a.32.32,0,0,1,.16-.09,1.07,1.07,0,0,0,.34-.89V9.45h0a.83.83,0,0,0-.72-.68.19.19,0,0,0-.21-.17.21.21,0,0,0-.18.07.17.17,0,0,0,0,.11.79.79,0,0,0-.67.53l0-.05v.07a1.39,1.39,0,0,0,.08.9l.08.1.06,0ZM72,8.84h0v0a.19.19,0,0,1,0-.1.18.18,0,0,1,.14-.05.14.14,0,0,1,.16.14v0h0a.77.77,0,0,1,.69.66l0,0a.82.82,0,0,0-.26.2,1,1,0,0,0-.23-.49v0l0,0a.71.71,0,0,0-.3.42.8.8,0,0,0-.27-.42l0,0,0,0a1,1,0,0,0-.33.45s0,0,0,0a2.08,2.08,0,0,0-.22-.31A.76.76,0,0,1,72,8.84Z"/><path class="cls-1" d="M72.15,10.6v0l0,0Z"/><path class="cls-1" d="M71.78,10.57v0Z"/><path class="cls-1" d="M71.25,11.7h0A1.15,1.15,0,0,1,71.1,11a1.83,1.83,0,0,1,.23.32l0,.05,0-.05,0-.09a1.07,1.07,0,0,1,.25-.42.71.71,0,0,1,.28.46l0,.1,0-.1,0-.08a.66.66,0,0,1,.23-.41.92.92,0,0,1,.23.49v.08l0-.07a1,1,0,0,1,.27-.27.84.84,0,0,1-.27.72l-.16.1s0,0,0,.06l.17-.11a1,1,0,0,0,.3-.83.55.55,0,0,0,.11-.18c0-.11,0-.33-.14-.39h-.07l0,0-.13.07h0l0,0v.06l0,.11.06-.09a.31.31,0,0,1,.18-.15h0c.18.06.1.33.11.33s-.06.12-.12.17a1.33,1.33,0,0,0-.3.27h0a1.05,1.05,0,0,0-.25-.48h0a.7.7,0,0,0-.27.44h0a.78.78,0,0,0-.2-.32l-.06,0,0,0h0a1.07,1.07,0,0,0-.28.45v0h0A1.88,1.88,0,0,0,71.1,11h0s-.11-.29,0-.42a.17.17,0,0,1,.11-.06h0a.16.16,0,0,1,.17.07l.06.13,0-.15a.21.21,0,0,1,0-.13h0l0,0h0a.21.21,0,0,0,0,.1.25.25,0,0,0-.17,0h0a.19.19,0,0,0-.14.09.55.55,0,0,0,0,.42,1.24,1.24,0,0,0,.14.81l0,0s0,0,0,0Z"/><path class="cls-1" d="M71.79,10.58v-.07l0,0,0,.08Z"/><path class="cls-1" d="M72.17,10.6l0-.07h0v.07Z"/><path class="cls-1" d="M72.62,10.49l.13-.07,0,0A.32.32,0,0,0,72.62,10.49Z"/><path class="cls-1" d="M72.55,10.45s0,0,0,.06l0,0a.14.14,0,0,0,0-.06Z"/><path class="cls-1" d="M71.5,10.34l0,0-.06,0,0,0Z"/><path class="cls-1" d="M71.57,10.32h0c.15,0,.19.16.19.17h0l0,0v0s0-.16.16-.17h0a.18.18,0,0,1,.13,0,.27.27,0,0,1,.05.16v0h0s.06-.16.18-.17h0a.16.16,0,0,1,.13.1l0,0a.19.19,0,0,0-.17-.13h0a.26.26,0,0,0-.19.12.27.27,0,0,0-.06-.1.2.2,0,0,0-.17-.05.21.21,0,0,1-.39,0h0a.14.14,0,0,0-.09,0l0,0,.06,0Z"/><polygon class="cls-1" points="71.77 10.57 71.78 10.62 71.78 10.61 71.78 10.57 71.77 10.57"/><path class="cls-1" d="M71.67,10.77h0l0,0,0-.05Z"/><path class="cls-1" d="M71.35,10.53l.08.14h0l-.06-.13a.16.16,0,0,0-.17-.07h0C71.31,10.45,71.35,10.52,71.35,10.53Z"/><path class="cls-1" d="M71.65,10.78a1,1,0,0,0-.28.45l0,0h0v0a1.07,1.07,0,0,1,.28-.45h0Z"/><polygon class="cls-1" points="72.15 10.6 72.14 10.65 72.15 10.64 72.15 10.6 72.15 10.6"/><path class="cls-1" d="M72.94,10.78a.67.67,0,0,1-.12.17,1.38,1.38,0,0,0-.29.27h0a1.33,1.33,0,0,1,.3-.27c.06,0,.11-.17.12-.17s.07-.27-.11-.33h0C73,10.51,72.94,10.78,72.94,10.78Z"/><path class="cls-1" d="M72.56,10.57v.12h0l0-.11v-.06h0A.11.11,0,0,1,72.56,10.57Z"/><path class="cls-1" d="M72.24,10.74a.73.73,0,0,0-.26.44h0a.7.7,0,0,1,.27-.44h0Z"/><polygon class="cls-1" points="72.15 10.53 72.15 10.53 72.15 10.6 72.15 10.6 72.15 10.53"/><path class="cls-1" d="M72.55,10.45a.13.13,0,0,1,0,.06h0s0,0,0-.06Z"/><polygon class="cls-1" points="71.76 10.49 71.75 10.49 71.77 10.57 71.78 10.57 71.76 10.49"/><path class="cls-1" d="M72.15,10.51v0h0v0a.27.27,0,0,0-.05-.16.18.18,0,0,0-.13,0h0a.16.16,0,0,1,.12,0A.24.24,0,0,1,72.15,10.51Z"/><path class="cls-1" d="M72.42,10.35h0a.16.16,0,0,1,.13.1h0A.16.16,0,0,0,72.42,10.35Z"/><path class="cls-1" d="M71.75,10.49h0s0-.18-.19-.17h0C71.71,10.31,71.75,10.48,71.75,10.49Z"/><path class="cls-1" d="M72.26,10.73h0Z"/><polygon class="cls-1" points="72.15 10.64 72.15 10.65 72.17 10.6 72.17 10.6 72.15 10.64"/><polygon class="cls-1" points="71.78 10.61 71.79 10.62 71.79 10.58 71.79 10.58 71.78 10.61"/><polygon class="cls-1" points="71.19 10.46 71.18 10.46 71.19 10.46 71.19 10.46"/><path class="cls-1" d="M72.61,10.59s.11-.14.19-.14h0a.31.31,0,0,0-.18.15l-.06.09h0Z"/><path class="cls-1" d="M71.1,10.93s-.1-.28,0-.41a.14.14,0,0,1,.1-.06h0a.17.17,0,0,0-.11.06c-.08.13,0,.41,0,.42h0a1.88,1.88,0,0,1,.25.32h0a2.24,2.24,0,0,0-.24-.31Z"/><path class="cls-1" d="M71.41,10.51a.21.21,0,0,1,0-.13h0a.21.21,0,0,0,0,.13l0,.15h0Z"/><path class="cls-1" d="M71.72,10.81l.06,0a.78.78,0,0,1,.2.32h0A.79.79,0,0,0,71.72,10.81Z"/><polygon class="cls-1" points="71.67 10.77 71.67 10.77 71.67 10.77 71.67 10.77 71.67 10.77"/><path class="cls-1" d="M72.26,10.73h0a1.05,1.05,0,0,1,.25.48h0a.89.89,0,0,0-.25-.48Z"/><polygon class="cls-1" points="71.8 10.51 71.79 10.58 71.79 10.58 71.81 10.51 71.8 10.51"/><path class="cls-1" d="M71.5,10.34h0l-.06,0h0Z"/><polygon class="cls-1" points="72.19 10.53 72.17 10.6 72.17 10.6 72.2 10.53 72.19 10.53"/><path class="cls-1" d="M72.2,10.52s.07-.16.19-.17h0c-.12,0-.18.16-.18.17h0Z"/><path class="cls-1" d="M71.81,10.49s0-.16.16-.17h0c-.13,0-.16.16-.16.17v0h0Z"/><path class="cls-1" d="M71.56,10.32h0l-.06,0h0Z"/><polygon class="cls-1" points="71.87 13.36 71.87 13.36 71.87 13.36 71.87 13.36"/><path class="cls-1" d="M72,12v.05L72,12Z"/><path class="cls-1" d="M72.06,12.19Z"/><path class="cls-1" d="M71.1,13.21a.85.85,0,0,1-.16-.17,1.13,1.13,0,0,1-.07-.68,1.69,1.69,0,0,1,.2.34l0,.06,0,0a.79.79,0,0,0,0-.09,1.11,1.11,0,0,1,.29-.39.68.68,0,0,1,.24.48v.1l0-.09,0-.09a.77.77,0,0,1,.27-.38.92.92,0,0,1,.19.51v.08l0-.07a1.11,1.11,0,0,1,.3-.25.87.87,0,0,1-.34.7l-.09,0,.06,0,.06,0a1,1,0,0,0,.37-.8.56.56,0,0,0,.13-.17c0-.11.07-.33-.1-.4l-.06,0a.34.34,0,0,0-.19.09.17.17,0,0,0,0-.07l0,0a.45.45,0,0,1,0,.12l0,.11.06-.09s.12-.13.2-.13h0c.17.08.08.34.08.34a.87.87,0,0,1-.13.16,1.62,1.62,0,0,0-.32.24h0a1,1,0,0,0-.2-.5h0a.74.74,0,0,0-.31.41h0a.75.75,0,0,0-.17-.33l0-.06,0,0h0a1,1,0,0,0-.32.43l0,0h0c-.06-.11-.18-.28-.22-.34h0s-.08-.29,0-.41.06,0,.11,0h0c.13,0,.16.07.16.07l0,.14v-.15a.13.13,0,0,1,0-.09.08.08,0,0,1,0,0l0,.07a.27.27,0,0,0-.16-.06h0a.22.22,0,0,0-.16.07.62.62,0,0,0,0,.42,1.36,1.36,0,0,0,.06.83,1,1,0,0,0,.17.18l0,0Z"/><polygon class="cls-1" points="71.58 12.01 71.59 12.02 71.59 12.01 71.58 12.01"/><polygon class="cls-1" points="72.06 12.19 72.06 12.19 72.06 12.19 72.06 12.19"/><path class="cls-1" d="M72,12,72,12H72V12Z"/><path class="cls-1" d="M71.59,12l0-.07h0V12Z"/><path class="cls-1" d="M72.34,11.87l0,.06,0,0s0,0,0-.06Z"/><path class="cls-1" d="M71.26,11.76l0,0,0,0,0,0s0,0,0,0a.08.08,0,0,0,0,0Z"/><path class="cls-1" d="M71.4,11.71h0c.15,0,.17.18.17.18v0h0v0s0-.16.18-.16h0a.15.15,0,0,1,.12,0A.24.24,0,0,1,72,12H72s.08-.15.2-.15h0a.19.19,0,0,1,.1,0l0,0a.19.19,0,0,0-.13-.09h0a.27.27,0,0,0-.2.11.22.22,0,0,0-.05-.11.19.19,0,0,0-.16-.07.23.23,0,0,0-.2.12.22.22,0,0,0-.2-.15h0a.29.29,0,0,0-.14,0l0,0a.2.2,0,0,1,.11,0Z"/><path class="cls-1" d="M71.46,12.16h0l0,0-.05-.05Z"/><path class="cls-1" d="M71.16,11.89l.07.15h0l0-.14s0-.07-.16-.07h0C71.13,11.82,71.16,11.89,71.16,11.89Z"/><path class="cls-1" d="M71.44,12.17a1,1,0,0,0-.32.43s0,0,0,0h0l0,0a1,1,0,0,1,.32-.43h0Z"/><polygon class="cls-1" points="71.95 12.03 71.94 12.09 71.95 12.08 71.95 12.03 71.95 12.03"/><polygon class="cls-1" points="71.58 12 71.58 12.03 71.59 12.02 71.58 12.01 71.58 12"/><path class="cls-1" d="M72.73,12.29a1.14,1.14,0,0,1-.14.16,1.31,1.31,0,0,0-.31.24h0a1.62,1.62,0,0,1,.32-.24.87.87,0,0,0,.13-.16s.09-.26-.08-.34h0C72.82,12,72.72,12.29,72.73,12.29Z"/><path class="cls-1" d="M72,12.19a.77.77,0,0,0-.3.41h0a.74.74,0,0,1,.31-.41h0Z"/><path class="cls-1" d="M72.37,12.05l0,.12h0l0-.11a.45.45,0,0,0,0-.12h0A.28.28,0,0,1,72.37,12.05Z"/><polygon class="cls-1" points="71.96 11.96 71.96 11.96 71.95 12.03 71.95 12.03 71.96 11.96"/><path class="cls-1" d="M72.33,11.87a.09.09,0,0,1,0,.06h0l0-.06Z"/><polygon class="cls-1" points="71.58 11.93 71.57 11.93 71.58 12 71.58 12.01 71.58 11.93"/><path class="cls-1" d="M71.57,11.89v0h0v0s0-.18-.17-.18h0C71.54,11.71,71.57,11.89,71.57,11.89Z"/><path class="cls-1" d="M72,12h0a.24.24,0,0,0,0-.16.15.15,0,0,0-.12,0h0a.17.17,0,0,1,.12,0A.24.24,0,0,1,72,12Z"/><path class="cls-1" d="M72.24,11.82h0a.19.19,0,0,1,.09,0h0A.19.19,0,0,0,72.24,11.82Z"/><polygon class="cls-1" points="71 11.81 71 11.81 71.01 11.82 71 11.81"/><polygon class="cls-1" points="71.95 12.08 71.95 12.09 71.98 12.03 71.98 12.03 71.95 12.08"/><path class="cls-1" d="M71.56,12.27a.75.75,0,0,1,.17.33h0a.73.73,0,0,0-.22-.39Z"/><path class="cls-1" d="M70.88,12.28s-.08-.29,0-.41a.12.12,0,0,1,.11,0h0s-.09,0-.11,0,0,.41,0,.41h0c0,.06.16.23.22.34h0a2.89,2.89,0,0,0-.22-.34Z"/><path class="cls-1" d="M72.06,12.18h0a1,1,0,0,1,.2.5h0a1.07,1.07,0,0,0-.21-.5Z"/><path class="cls-1" d="M71.22,11.88a.27.27,0,0,1,0-.09h0a.13.13,0,0,0,0,.09V12h0Z"/><path class="cls-1" d="M72.42,12.07s.11-.13.19-.13h0c-.08,0-.17.1-.2.13l-.06.09h0Z"/><polygon class="cls-1" points="71.46 12.16 71.46 12.16 71.46 12.16 71.46 12.16 71.46 12.16"/><polygon class="cls-1" points="71.59 12.02 71.59 12.03 71.59 12.01 71.59 12.01 71.59 12.02"/><path class="cls-1" d="M71.26,11.76l0,0h0l0,0,0,0h0Z"/><polygon class="cls-1" points="71.61 11.94 71.59 12.01 71.59 12.01 71.61 11.94 71.61 11.94"/><polygon class="cls-1" points="72.02 11.96 72.01 11.96 72.01 11.96 71.98 12.03 71.98 12.03 72.01 11.96 72.02 11.96"/><path class="cls-1" d="M72.21,11.81h0c-.12,0-.19.13-.2.15h0S72.1,11.81,72.21,11.81Z"/><path class="cls-1" d="M71.4,11.71h0a.2.2,0,0,0-.11,0h0A.16.16,0,0,1,71.4,11.71Z"/><path class="cls-1" d="M71.62,11.9s0-.16.18-.16h0c-.13,0-.18.15-.18.16v0h0Z"/><path class="cls-1" d="M70.8,14.53a1.11,1.11,0,0,1-.07-.67,1.28,1.28,0,0,1,.2.34l0,.05,0-.05a.59.59,0,0,0,0-.08,1.14,1.14,0,0,1,.29-.4.7.7,0,0,1,.24.48v.11l0-.1,0-.08a.79.79,0,0,1,.27-.39.92.92,0,0,1,.19.52v.07l0-.06a1,1,0,0,1,.3-.25.91.91,0,0,1-.34.7,1,1,0,0,1-.43.14l0,.06h0a.24.24,0,0,1,.17-.07h0a.91.91,0,0,0,.17-.09,1,1,0,0,0,.37-.8.56.56,0,0,0,.13-.17c0-.1.07-.32-.1-.4h-.06a.28.28,0,0,0-.19.09.23.23,0,0,0-.07-.17l0,0c.1.06.07.2.07.21l0,.1.06-.08a.32.32,0,0,1,.2-.13h0c.17.08.08.33.08.33a.67.67,0,0,1-.14.17,1.22,1.22,0,0,0-.31.24h0a.9.9,0,0,0-.21-.5h0v0h0a.76.76,0,0,0-.31.42h0a.78.78,0,0,0-.17-.34l0-.06,0,0h0a1.07,1.07,0,0,0-.32.42l0,0h0a3.42,3.42,0,0,0-.22-.34v0a.57.57,0,0,1,0-.41.13.13,0,0,1,.11,0h0c.13,0,.16.08.16.08l.06.13v-.14a.16.16,0,0,1,0-.09l0,0,0,.05a.27.27,0,0,0-.16-.05h0a.19.19,0,0,0-.16.07.61.61,0,0,0,0,.42,1.33,1.33,0,0,0,.06.82.88.88,0,0,0,.21.22.11.11,0,0,1,.08,0A.84.84,0,0,1,70.8,14.53Z"/><polygon class="cls-1" points="71.92 13.69 71.92 13.69 71.92 13.69 71.92 13.69"/><path class="cls-1" d="M71.89,13.42h-.07v.13l.06-.11S71.88,13.44,71.89,13.42Z"/><path class="cls-1" d="M71.32,14.87h0s0,0,0,0Z"/><path class="cls-1" d="M71.92,13.69h0v0Z"/><path class="cls-1" d="M71.44,13.44v.07l0-.07Z"/><path class="cls-1" d="M71.12,13.26l0,0,0,0h0l0,0,0,0Z"/><path class="cls-1" d="M72.15,13.27l-.08,0h0l.06,0,0,0Z"/><path class="cls-1" d="M71.44,13.44h0v0h0v.07Z"/><path class="cls-1" d="M71.82,13.43h.07a.3.3,0,0,1,.08-.08l-.1,0h-.05S71.83,13.42,71.82,13.43Z"/><path class="cls-1" d="M72.07,13.25a.27.27,0,0,0-.2.11l.1,0a.17.17,0,0,1,.1,0h0l.08,0h-.08Z"/><path class="cls-1" d="M71.25,13.2h0a.2.2,0,0,1,.17.17h.06s.06-.15.17-.14h0a.12.12,0,0,1,.12,0,.2.2,0,0,1,0,.08h.05a.22.22,0,0,0-.05-.11.26.26,0,0,0-.16-.07.24.24,0,0,0-.2.13.22.22,0,0,0-.2-.16h0a.18.18,0,0,0-.15.06l0,0,.11,0Z"/><path class="cls-1" d="M71.3,13.67a1.1,1.1,0,0,0-.33.42v0h0l0,0a1.07,1.07,0,0,1,.32-.42h0Z"/><path class="cls-1" d="M71.82,13.43h0l0,.14h0v-.13Z"/><path class="cls-1" d="M72.58,13.78a.56.56,0,0,1-.13.17,1.15,1.15,0,0,0-.31.23h0a1.22,1.22,0,0,1,.31-.24.67.67,0,0,0,.14-.17s.09-.25-.08-.33h0C72.68,13.53,72.58,13.78,72.58,13.78Z"/><path class="cls-1" d="M71,13.39l.06.15v0L71,13.39s0-.08-.16-.08h0A.19.19,0,0,1,71,13.39Z"/><polygon class="cls-1" points="71.43 13.44 71.44 13.52 71.45 13.51 71.44 13.44 71.43 13.44"/><path class="cls-1" d="M71.89,13.68a.77.77,0,0,0-.3.41h0a.76.76,0,0,1,.31-.42h0Z"/><path class="cls-1" d="M72.23,13.54l0,.12h0l0-.1s0-.15-.07-.21h0A.2.2,0,0,1,72.23,13.54Z"/><path class="cls-1" d="M71.32,13.66h0l0,0s0,0-.05,0Z"/><path class="cls-1" d="M72.07,13.31h0l.06,0h0l-.06,0Z"/><path class="cls-1" d="M71.82,13.37h0a.18.18,0,0,1,0,.06h0S71.82,13.4,71.82,13.37Z"/><path class="cls-1" d="M71.43,13.39v0h0v.07h0Z"/><path class="cls-1" d="M71.42,13.37h0a.2.2,0,0,0-.17-.17h0A.19.19,0,0,1,71.42,13.37Z"/><path class="cls-1" d="M71.81,13.37h0a.2.2,0,0,0,0-.08.12.12,0,0,0-.12,0h0a.13.13,0,0,1,.12,0A.11.11,0,0,1,71.81,13.37Z"/><path class="cls-1" d="M71.87,13.46l-.06.11h0l.06-.12s0,0,0,0h0S71.87,13.45,71.87,13.46Z"/><path class="cls-1" d="M71.92,13.67h0v0h0a.9.9,0,0,1,.21.5h0a1,1,0,0,0-.21-.49Z"/><polygon class="cls-1" points="71.45 13.51 71.45 13.52 71.47 13.44 71.47 13.44 71.45 13.51"/><polygon class="cls-1" points="71.32 13.66 71.32 13.66 71.32 13.66 71.32 13.66 71.32 13.66"/><path class="cls-1" d="M71.42,13.76a.78.78,0,0,1,.17.34h0a.77.77,0,0,0-.22-.39Z"/><path class="cls-1" d="M70.74,13.77s-.08-.29,0-.41a.14.14,0,0,1,.11,0h0a.13.13,0,0,0-.11,0,.57.57,0,0,0,0,.41v0a3.42,3.42,0,0,1,.22.34h0a2.68,2.68,0,0,0-.22-.33Z"/><path class="cls-1" d="M71.08,13.38a.27.27,0,0,1,0-.09h0a.16.16,0,0,0,0,.09v0Z"/><path class="cls-1" d="M72.28,13.57a.27.27,0,0,1,.19-.13h0a.32.32,0,0,0-.2.13l-.06.08h0Z"/><path class="cls-1" d="M71.49,13.38h0v0h0v0Z"/><path class="cls-1" d="M72,13.34h0a.3.3,0,0,0-.08.08h0A.15.15,0,0,1,72,13.34Z"/><path class="cls-1" d="M71.12,13.26l0,0h0l0,0,0,0h0Z"/><path class="cls-1" d="M71.25,13.2h0l-.11,0h0Z"/><path class="cls-1" d="M71.66,13.24h0c-.11,0-.16.1-.17.14h0A.18.18,0,0,1,71.66,13.24Z"/><path class="cls-1" d="M72.07,13.31h0a.17.17,0,0,0-.1,0h0Z"/><path class="cls-1" d="M72,13.34l.09,0h0Z"/><path class="cls-1" d="M70.64,16.13a1.14,1.14,0,0,1-.07-.68,1.69,1.69,0,0,1,.2.34l0,.06,0-.06,0-.08a1.24,1.24,0,0,1,.29-.4.76.76,0,0,1,.24.49v.1l0-.1,0-.08a.77.77,0,0,1,.27-.39,1,1,0,0,1,.19.52v.07l0-.06a1.08,1.08,0,0,1,.29-.25.85.85,0,0,1-.34.7.93.93,0,0,1-.2.1.1.1,0,0,1,0,.05.72.72,0,0,0,.2-.09,1,1,0,0,0,.37-.8,1.25,1.25,0,0,0,.13-.17c0-.11.07-.33-.1-.41h-.06a.34.34,0,0,0-.19.09.21.21,0,0,0-.16-.21l-.22.06,0,0a.06.06,0,0,1,0,0h0a.2.2,0,0,1,0,.1v.14l.06-.12s.07-.15.2-.15h0c.17,0,.13.23.13.24l0,.11.07-.09a.3.3,0,0,1,.2-.13h0c.17.08.08.33.08.33a.53.53,0,0,1-.14.17,1.31,1.31,0,0,0-.31.24h0a.93.93,0,0,0-.21-.5h0a.77.77,0,0,0-.3.41h0a.64.64,0,0,0-.16-.33l-.05-.06s0,0,0,0h0a1,1,0,0,0-.32.43l0,0h0a2.83,2.83,0,0,0-.23-.34h0s-.08-.3,0-.42a.16.16,0,0,1,.11,0h0a.2.2,0,0,1,.16.08l0,.14V15a.22.22,0,0,1,0-.12l0,0,0,0,0,0a.24.24,0,0,0,0,.1.23.23,0,0,0-.17-.06h0a.21.21,0,0,0-.15.07.62.62,0,0,0,0,.42,1.32,1.32,0,0,0,.07.82.35.35,0,0,0,.07.09h.08Z"/><path class="cls-1" d="M71.34,14.94l-.08,0a.21.21,0,0,1,0,.06v.12l0-.11A.06.06,0,0,1,71.34,14.94Z"/><path class="cls-1" d="M71.61,14.87h0l0,0h0l0-.06Z"/><path class="cls-1" d="M71.26,14.92l.08,0,0-.06h-.06l0,0s0,0,0,0l-.07,0Z"/><path class="cls-1" d="M71.09,14.8h0l-.07,0a.11.11,0,0,0-.08,0l0,0Z"/><path class="cls-1" d="M71.91,14.85a.24.24,0,0,0-.17.07l.22-.06h0Z"/><path class="cls-1" d="M71.5,14.78a.23.23,0,0,0-.18.09h.06a.17.17,0,0,1,.12-.05h0a.18.18,0,0,1,.11,0h.06s0,0,0,0A.23.23,0,0,0,71.5,14.78Z"/><path class="cls-1" d="M71.21,14.84l.07,0a.19.19,0,0,0-.18-.11H71l.07,0h0A.18.18,0,0,1,71.21,14.84Z"/><path class="cls-1" d="M71.66,15l0,.15h0V15a.2.2,0,0,0,0-.1h0A.3.3,0,0,1,71.66,15Z"/><path class="cls-1" d="M71.26,14.92h0l0,.06v0A.21.21,0,0,0,71.26,14.92Z"/><path class="cls-1" d="M72.06,15.14l0,.11h0l0-.11s0-.2-.13-.24h0A.18.18,0,0,1,72.06,15.14Z"/><path class="cls-1" d="M70.86,15l.06.15h0l0-.14a.2.2,0,0,0-.16-.08h0C70.83,14.91,70.86,15,70.86,15Z"/><path class="cls-1" d="M71.73,15.28a.69.69,0,0,0-.3.41h0a.77.77,0,0,1,.3-.41h0Z"/><path class="cls-1" d="M71.16,15.25h0s0,0,0,0,0,0,0-.05Z"/><path class="cls-1" d="M71.14,15.26a1.06,1.06,0,0,0-.33.43v0h0l0,0a1,1,0,0,1,.32-.43h0Z"/><path class="cls-1" d="M72.42,15.37a.62.62,0,0,1-.13.17,1.31,1.31,0,0,0-.31.24h0a1.31,1.31,0,0,1,.31-.24.53.53,0,0,0,.14-.17s.09-.25-.08-.33h0C72.52,15.12,72.42,15.37,72.42,15.37Z"/><path class="cls-1" d="M71.21,14.84h0a.35.35,0,0,1,0,.08h0Z"/><path class="cls-1" d="M71.61,14.87h0a.08.08,0,0,1,0,0h0l0,0Z"/><path class="cls-1" d="M71.2,14.84h0a.18.18,0,0,0-.11,0h0A.15.15,0,0,1,71.2,14.84Z"/><path class="cls-1" d="M71.5,14.83a.21.21,0,0,1,.11,0h0a.18.18,0,0,0-.11,0Z"/><path class="cls-1" d="M71.75,15.27h0Z"/><path class="cls-1" d="M70.92,15a.15.15,0,0,1,0-.12l0,0h0l0,0a.22.22,0,0,0,0,.12v.15h0Z"/><path class="cls-1" d="M72.12,15.16a.27.27,0,0,1,.19-.13h0a.3.3,0,0,0-.2.13l-.07.09h0Z"/><path class="cls-1" d="M71.32,15l0,.11v0l0-.13,0-.05h0A.06.06,0,0,0,71.32,15Z"/><path class="cls-1" d="M71.75,15.27h0a.93.93,0,0,1,.21.5h0a1.07,1.07,0,0,0-.21-.5Z"/><polygon class="cls-1" points="70.7 14.9 70.7 14.9 70.7 14.9 70.7 14.9"/><polygon class="cls-1" points="71.16 15.25 71.16 15.25 71.16 15.25 71.16 15.25 71.16 15.25"/><path class="cls-1" d="M71.26,15.36a.64.64,0,0,1,.16.33h0a.81.81,0,0,0-.22-.39Z"/><path class="cls-1" d="M71.71,15.05s.08-.15.2-.15h0c-.13,0-.2.15-.2.15l-.06.12h0Z"/><path class="cls-1" d="M70.58,15.37s-.08-.3,0-.42a.13.13,0,0,1,.11,0h0a.16.16,0,0,0-.11,0c-.09.12,0,.41,0,.42h0a2.83,2.83,0,0,1,.23.34h0a3.42,3.42,0,0,0-.22-.34Z"/><path class="cls-1" d="M71.39,14.88h0l0,.06h0Z"/><path class="cls-1" d="M71.09,14.8h0l-.09,0h0Z"/><path class="cls-1" d="M71.5,14.83h0a.17.17,0,0,0-.12.05h0A.13.13,0,0,1,71.5,14.83Z"/><path class="cls-1" d="M70.94,16.47h0l0,.12,0-.11Z"/><path class="cls-1" d="M70.31,17.61a1.11,1.11,0,0,1-.07-.67,1.28,1.28,0,0,1,.2.34l0,0,0,0,0-.08a1.14,1.14,0,0,1,.29-.4.7.7,0,0,1,.24.48v.11l0-.1,0-.08a.79.79,0,0,1,.27-.39.92.92,0,0,1,.19.52v.07l.05-.06a.92.92,0,0,1,.29-.25.87.87,0,0,1-.33.7l-.15.07a.21.21,0,0,1,0,.06l.14-.08a1,1,0,0,0,.37-.8.56.56,0,0,0,.13-.17c0-.1.07-.32-.1-.4H72a.28.28,0,0,0-.19.09.3.3,0,0,0,0-.1h0a.27.27,0,0,1,0,.15l0,.11.06-.08a.32.32,0,0,1,.2-.13h0c.17.08.08.33.08.33A.67.67,0,0,1,72,17a1.22,1.22,0,0,0-.31.24h0a.9.9,0,0,0-.21-.5h0v0h0a.76.76,0,0,0-.31.42h0a.78.78,0,0,0-.17-.34l-.05-.06,0,0h0a1.07,1.07,0,0,0-.32.42l0,0h0a3.42,3.42,0,0,0-.22-.34v0s-.08-.29,0-.41a.12.12,0,0,1,.1-.05h0a.17.17,0,0,1,.16.08l0,.13v-.14a.17.17,0,0,1,0-.12.08.08,0,0,1,.06,0l0-.05-.06.05a.2.2,0,0,0,0,.09.27.27,0,0,0-.16-.05h0a.18.18,0,0,0-.15.07c-.08.11,0,.33,0,.42a1.41,1.41,0,0,0,.07.82l.1.12a.13.13,0,0,1,.06,0A.58.58,0,0,1,70.31,17.61Z"/><path class="cls-1" d="M71.38,16.53h0v.12l.06-.11Z"/><path class="cls-1" d="M71.68,16.42l0,0h0a.1.1,0,0,0,0-.05Z"/><path class="cls-1" d="M70.76,16.28h0l0-.05h-.08l0,.05Z"/><path class="cls-1" d="M71.33,16.52h0s0,0,.05-.06h-.1Z"/><path class="cls-1" d="M71,16.48h0l0,0-.1,0a.29.29,0,0,1,0,.09Z"/><path class="cls-1" d="M70.91,16.38l.1,0a.16.16,0,0,1,.16-.1h0a.13.13,0,0,1,.12.05.14.14,0,0,1,0,.1h.1a.16.16,0,0,1,.15-.08h0l.07,0h0a.18.18,0,0,0-.11-.07h0a.27.27,0,0,0-.2.11.34.34,0,0,0,0-.11.26.26,0,0,0-.16-.07.22.22,0,0,0-.2.13.22.22,0,0,0-.2-.16h0l0,.05A.13.13,0,0,1,70.91,16.38Z"/><path class="cls-1" d="M71.4,16.76a.72.72,0,0,0-.3.41h0a.76.76,0,0,1,.31-.42h0Z"/><polygon class="cls-1" points="71.33 16.53 71.31 16.66 71.32 16.65 71.33 16.53 71.33 16.53"/><path class="cls-1" d="M70.83,16.74h0l0,0,0-.05Z"/><path class="cls-1" d="M70.53,16.47l.07.15v0l0-.13a.17.17,0,0,0-.16-.08h0C70.5,16.39,70.53,16.47,70.53,16.47Z"/><polygon class="cls-1" points="70.94 16.47 70.94 16.46 70.94 16.47 70.95 16.6 70.96 16.59 70.94 16.47 70.94 16.47"/><path class="cls-1" d="M70.81,16.75a1.1,1.1,0,0,0-.33.42v0h0l0,0a1.07,1.07,0,0,1,.32-.42h0Z"/><path class="cls-1" d="M71.74,16.62l0,.12h0l0-.11a.27.27,0,0,0,0-.15h0A.28.28,0,0,1,71.74,16.62Z"/><path class="cls-1" d="M72.09,16.86A.56.56,0,0,1,72,17a1.15,1.15,0,0,0-.31.23h0A1.22,1.22,0,0,1,72,17a.67.67,0,0,0,.14-.17s.09-.25-.08-.33h0C72.19,16.61,72.09,16.86,72.09,16.86Z"/><path class="cls-1" d="M71.33,16.52v-.05h0v.05h0Z"/><path class="cls-1" d="M70.78,16.29h0Z"/><path class="cls-1" d="M71.68,16.42h0a.21.21,0,0,1,0,.06h0Z"/><path class="cls-1" d="M70.91,16.38h0s0,.07,0,.08h0A.29.29,0,0,0,70.91,16.38Z"/><path class="cls-1" d="M70.91,16.38h0a.13.13,0,0,0-.13-.09h0A.14.14,0,0,1,70.91,16.38Z"/><path class="cls-1" d="M71.58,16.39h0l.07,0h0l-.07,0Z"/><path class="cls-1" d="M71.33,16.47h0a.14.14,0,0,0,0-.1.13.13,0,0,0-.12-.05h0a.13.13,0,0,1,.12.05A.42.42,0,0,1,71.33,16.47Z"/><path class="cls-1" d="M71.42,16.75v0h0Z"/><path class="cls-1" d="M71.42,16.75h0v0h0a.9.9,0,0,1,.21.5h0a1,1,0,0,0-.21-.49Z"/><polygon class="cls-1" points="70.83 16.74 70.83 16.74 70.83 16.74 70.83 16.74 70.83 16.74"/><path class="cls-1" d="M70.93,16.84a.78.78,0,0,1,.17.34h0a.77.77,0,0,0-.22-.39Z"/><path class="cls-1" d="M70.25,16.85s-.08-.29,0-.41a.13.13,0,0,1,.11-.05h0a.12.12,0,0,0-.1.05c-.1.12,0,.41,0,.41v0a3.42,3.42,0,0,1,.22.34h0a2.68,2.68,0,0,0-.22-.33Z"/><path class="cls-1" d="M70.59,16.46a.15.15,0,0,1,0-.12l.06,0h0a.08.08,0,0,0-.06,0,.17.17,0,0,0,0,.12v0Z"/><polygon class="cls-1" points="70.96 16.59 70.96 16.6 70.99 16.49 70.99 16.48 70.96 16.59"/><path class="cls-1" d="M71.79,16.65a.27.27,0,0,1,.19-.13h0a.32.32,0,0,0-.2.13l-.06.08h0Z"/><polygon class="cls-1" points="71.38 16.54 71.32 16.65 71.32 16.66 71.38 16.54 71.39 16.53 71.38 16.53 71.38 16.54"/><path class="cls-1" d="M70.76,16.28h0l-.07,0h0Z"/><path class="cls-1" d="M71.43,16.47s-.05.05-.05.06h0l.05-.07Z"/><path class="cls-1" d="M71,16.42h0l0,0h0v0Z"/><path class="cls-1" d="M71.17,16.32h0a.16.16,0,0,0-.16.1h0A.21.21,0,0,1,71.17,16.32Z"/><path class="cls-1" d="M71.58,16.39h0a.16.16,0,0,0-.15.08h0A.26.26,0,0,1,71.58,16.39Z"/><path class="cls-1" d="M71.12,18h-.05v.12l.06-.12Z"/><path class="cls-1" d="M70.68,18v.09l0-.08Z"/><path class="cls-1" d="M70.12,19.19l-.07-.09a1.15,1.15,0,0,1-.07-.68,1.46,1.46,0,0,1,.2.34l0,0,0,0a.59.59,0,0,0,0-.08,1.24,1.24,0,0,1,.29-.4.76.76,0,0,1,.24.48v.11l0-.1,0-.08a.73.73,0,0,1,.27-.39.92.92,0,0,1,.19.52v.07l0-.06a.92.92,0,0,1,.29-.25.86.86,0,0,1-.34.7l-.11.06,0,.06.12-.07a1,1,0,0,0,.37-.8.77.77,0,0,0,.13-.16c0-.11.07-.33-.1-.41h-.06a.31.31,0,0,0-.19.09.2.2,0,0,0,0-.11h0a.28.28,0,0,1,0,.17l0,.11.07-.09a.3.3,0,0,1,.2-.13h0c.17.08.08.33.08.33a.67.67,0,0,1-.14.17,1.19,1.19,0,0,0-.32.24h0a.93.93,0,0,0-.21-.5h0a.72.72,0,0,0-.3.41h0a.64.64,0,0,0-.16-.33l0-.06,0,0h0a1.07,1.07,0,0,0-.32.42l0,0h0a3,3,0,0,0-.21-.34h0s-.08-.3,0-.42a.14.14,0,0,1,.11-.05h0a.17.17,0,0,1,.16.08l0,.14v-.15a.22.22,0,0,1,0-.12l0,0,0,0h0a.16.16,0,0,0,0,.09.31.31,0,0,0-.17-.05h0a.18.18,0,0,0-.15.07.62.62,0,0,0,0,.42,1.33,1.33,0,0,0,.07.82.39.39,0,0,0,.08.1h0Z"/><path class="cls-1" d="M70.68,18h0v-.06l-.07,0a.1.1,0,0,1,0,0Z"/><path class="cls-1" d="M71.41,17.89l0,.05h0a.21.21,0,0,0,0-.06Z"/><path class="cls-1" d="M71.07,18v0h.05a.18.18,0,0,1,0-.07h-.1Z"/><path class="cls-1" d="M70.38,17.8l.07,0,0,0a.13.13,0,0,0-.06,0Z"/><path class="cls-1" d="M70.51,17.77h0a.17.17,0,0,1,.16.14l.07,0a.18.18,0,0,1,.17-.13h0a.17.17,0,0,1,.12.05.14.14,0,0,1,0,.1h.1a.19.19,0,0,1,.15-.08h0l.06,0,0,0a.31.31,0,0,0-.1-.05h0a.24.24,0,0,0-.2.11.34.34,0,0,0-.06-.12.19.19,0,0,0-.15-.06.21.21,0,0,0-.2.12.24.24,0,0,0-.2-.16h0l-.09,0,0,0h.06Z"/><polygon class="cls-1" points="70.68 17.98 70.69 18.08 70.69 18.07 70.68 17.98 70.68 17.98"/><path class="cls-1" d="M71.83,18.34a.82.82,0,0,1-.13.17,1.19,1.19,0,0,0-.32.24h0a1.19,1.19,0,0,1,.32-.24.67.67,0,0,0,.14-.17s.09-.25-.08-.33h0C71.93,18.09,71.83,18.34,71.83,18.34Z"/><path class="cls-1" d="M71.47,18.11l0,.11h0l0-.11a.28.28,0,0,0,0-.17h0A.22.22,0,0,1,71.47,18.11Z"/><path class="cls-1" d="M70.27,18l.06.15h0l0-.14a.17.17,0,0,0-.16-.08h0C70.24,17.87,70.27,18,70.27,18Z"/><path class="cls-1" d="M70.57,18.22h0l0,0s0,0-.05-.05Z"/><path class="cls-1" d="M71.14,18.25a.67.67,0,0,0-.3.4h0a.72.72,0,0,1,.3-.41h0Z"/><path class="cls-1" d="M70.55,18.23a1.1,1.1,0,0,0-.33.42v0h0l0,0a1.07,1.07,0,0,1,.32-.42h0Z"/><polygon class="cls-1" points="71.06 18.02 71.05 18.15 71.06 18.14 71.07 18.02 71.06 18.02"/><path class="cls-1" d="M70.68,18a.1.1,0,0,0,0,0h0l0,.05v0h0Z"/><path class="cls-1" d="M71.07,18V18h0V18h0Z"/><path class="cls-1" d="M71.41,17.89h0l0,.05h0Z"/><path class="cls-1" d="M71.32,17.87h0l.05,0h0l-.06,0Z"/><path class="cls-1" d="M71.07,18h0a.14.14,0,0,0,0-.1.17.17,0,0,0-.12-.05h0a.17.17,0,0,1,.12.05A.42.42,0,0,1,71.07,18Z"/><path class="cls-1" d="M70.66,17.9h0a.17.17,0,0,0-.16-.14h0A.15.15,0,0,1,70.66,17.9Z"/><path class="cls-1" d="M71.16,18.24h0Z"/><path class="cls-1" d="M70,18.34s-.08-.3,0-.42a.13.13,0,0,1,.11-.05h0a.14.14,0,0,0-.11.05c-.09.12,0,.41,0,.42h0a3,3,0,0,1,.21.34h0c-.06-.11-.18-.27-.22-.33Z"/><path class="cls-1" d="M70.33,17.94a.15.15,0,0,1,0-.12s0,0,0,0h0l0,0a.22.22,0,0,0,0,.12v.15h0Z"/><polygon class="cls-1" points="71.12 18.02 71.06 18.14 71.06 18.15 71.12 18.02 71.12 18.02 71.12 18.02 71.12 18.02"/><path class="cls-1" d="M70.67,18.33a.64.64,0,0,1,.16.33h0a.82.82,0,0,0-.22-.38Z"/><path class="cls-1" d="M71.16,18.23h0a.93.93,0,0,1,.21.5h0a1,1,0,0,0-.2-.5Z"/><polygon class="cls-1" points="70.69 18.07 70.7 18.08 70.72 17.99 70.72 17.99 70.69 18.07"/><polygon class="cls-1" points="70.57 18.22 70.57 18.22 70.57 18.22 70.57 18.22 70.57 18.22"/><path class="cls-1" d="M71.53,18.13a.27.27,0,0,1,.19-.13h0a.3.3,0,0,0-.2.13l-.07.09h0Z"/><path class="cls-1" d="M71.17,18a.18.18,0,0,0,0,.07h0a.18.18,0,0,1,0-.07Z"/><path class="cls-1" d="M70.74,17.93h0V18h0v-.06Z"/><path class="cls-1" d="M70.45,17.77h0l-.07,0h0Z"/><path class="cls-1" d="M71.32,17.87h0a.19.19,0,0,0-.15.08h0A.22.22,0,0,1,71.32,17.87Z"/><path class="cls-1" d="M70.91,17.8h0a.18.18,0,0,0-.17.13h0A.2.2,0,0,1,70.91,17.8Z"/><path class="cls-1" d="M70.5,17.77h0Z"/><path class="cls-1" d="M69.79,20.53a1.19,1.19,0,0,1-.07-.67,2.11,2.11,0,0,1,.21.34v.05l0-.05a.56.56,0,0,0,0-.08,1,1,0,0,1,.29-.4.73.73,0,0,1,.23.48v.11l0-.1s0-.05,0-.08a.68.68,0,0,1,.27-.39,1,1,0,0,1,.18.52v.07l0-.06a1,1,0,0,1,.3-.25.88.88,0,0,1-.34.7.92.92,0,0,1-.36.13l0,.07a1,1,0,0,0,.41-.15.93.93,0,0,0,.37-.8.56.56,0,0,0,.13-.17c0-.1.08-.32-.1-.4h-.06a.24.24,0,0,0-.18.09.19.19,0,0,0,0-.08l0,0a.21.21,0,0,1,0,.12l0,.11.07-.08a.27.27,0,0,1,.19-.13h.05c.17.08.07.33.07.33a.82.82,0,0,1-.13.17,1,1,0,0,0-.32.24h0a1.07,1.07,0,0,0-.21-.5h0v0h0a.81.81,0,0,0-.31.42h0a.84.84,0,0,0-.17-.34l0-.06,0,0h0a1.1,1.1,0,0,0-.33.42l0,0h0a2.24,2.24,0,0,0-.22-.34v0s-.08-.29,0-.41a.13.13,0,0,1,.11-.05h0c.13,0,.16.08.16.08l.06.13v-.14a.27.27,0,0,1,0-.12l0,0a.18.18,0,0,0,0,.08.27.27,0,0,0-.16,0h0a.16.16,0,0,0-.15.07.56.56,0,0,0,0,.42,1.33,1.33,0,0,0,.07.82.77.77,0,0,0,.33.29s0,0,0-.06A.77.77,0,0,1,69.79,20.53Z"/><path class="cls-1" d="M70.43,19.47v0Z"/><path class="cls-1" d="M70.81,19.5v.07l0-.07Z"/><path class="cls-1" d="M70.16,20.83l-.07,0s0,0,0,.06l.07,0S70.15,20.85,70.16,20.83Z"/><path class="cls-1" d="M70.4,20.88a1,1,0,0,0,.25,0l0,0h.08l0-.07Z"/><path class="cls-1" d="M70.4,20.88h0a.6.6,0,0,1-.24-.05s0,0,0,.06a.74.74,0,0,0,.25.05h.24l0,0A1,1,0,0,1,70.4,20.88Z"/><path class="cls-1" d="M70.81,19.5h0l0,0,0,0h-.06Z"/><path class="cls-1" d="M70.11,19.26a.1.1,0,0,1,0,0l0,0-.05,0h0l0,0Z"/><path class="cls-1" d="M70.45,19.47l0-.06,0,0v.08Z"/><path class="cls-1" d="M71.19,19.36l0,.06,0,0,0-.06Z"/><path class="cls-1" d="M70.25,19.2h0c.14,0,.16.18.16.19h0l0,0v0s0-.16.18-.15h0c.06,0,.1,0,.12.05a.22.22,0,0,1,0,.15h.06s.09-.13.18-.12h0a.19.19,0,0,1,.09.05l0,0a.17.17,0,0,0-.13-.08h0a.27.27,0,0,0-.2.11.34.34,0,0,0,0-.11.26.26,0,0,0-.16-.07.24.24,0,0,0-.2.13.22.22,0,0,0-.2-.16h0a.21.21,0,0,0-.12,0l0,0,.08,0Z"/><path class="cls-1" d="M70.29,19.67a1.07,1.07,0,0,0-.32.42l0,0h0l0,0a1.1,1.1,0,0,1,.33-.42h0Z"/><path class="cls-1" d="M71.22,19.54l0,.12h0l0-.11a.21.21,0,0,0,0-.12h0A.28.28,0,0,1,71.22,19.54Z"/><path class="cls-1" d="M70.88,19.68a.77.77,0,0,0-.3.41h0a.81.81,0,0,1,.31-.42h0Z"/><polygon class="cls-1" points="70.43 19.46 70.44 19.52 70.44 19.51 70.43 19.47 70.43 19.46"/><path class="cls-1" d="M70.31,19.66h0l0,0a.1.1,0,0,1,0-.05Z"/><path class="cls-1" d="M70,19.39l.06.15v0L70,19.39s0-.08-.16-.08h0A.2.2,0,0,1,70,19.39Z"/><path class="cls-1" d="M71.58,19.78a.67.67,0,0,1-.14.17,1.15,1.15,0,0,0-.31.23h0a1,1,0,0,1,.32-.24.82.82,0,0,0,.13-.17s.1-.25-.07-.33h0C71.67,19.53,71.58,19.78,71.58,19.78Z"/><polygon class="cls-1" points="70.81 19.5 70.8 19.59 70.8 19.57 70.81 19.5 70.81 19.5"/><polygon class="cls-1" points="70.42 19.39 70.42 19.39 70.43 19.46 70.43 19.47 70.42 19.39"/><polygon class="cls-1" points="70.82 19.44 70.82 19.44 70.81 19.44 70.81 19.44 70.81 19.5 70.81 19.5 70.82 19.44"/><path class="cls-1" d="M71.19,19.36h0a.09.09,0,0,1,0,.06h0Z"/><path class="cls-1" d="M70.81,19.44h0a.22.22,0,0,0,0-.15s-.06-.05-.12-.05h0a.17.17,0,0,1,.12.05A.2.2,0,0,1,70.81,19.44Z"/><path class="cls-1" d="M70.42,19.39h0s0-.18-.16-.19h0C70.4,19.21,70.42,19.38,70.42,19.39Z"/><path class="cls-1" d="M71.06,19.31h0a.19.19,0,0,1,.09.05h0a.19.19,0,0,0-.09-.05Z"/><path class="cls-1" d="M70.91,19.67v0h0Z"/><path class="cls-1" d="M71.27,19.57s.11-.13.19-.13h0a.27.27,0,0,0-.19.13l-.07.08h0Z"/><path class="cls-1" d="M70.07,19.38a.19.19,0,0,1,0-.11h0a.27.27,0,0,0,0,.12v0Z"/><polygon class="cls-1" points="70.31 19.66 70.31 19.66 70.31 19.66 70.31 19.66 70.31 19.66"/><path class="cls-1" d="M69.73,19.77s-.08-.29,0-.41a.14.14,0,0,1,.11-.05h0a.13.13,0,0,0-.11.05c-.09.12,0,.41,0,.41v0a2.24,2.24,0,0,1,.22.34h0a1.88,1.88,0,0,0-.22-.33Z"/><path class="cls-1" d="M70.91,19.67h0v0h0a1.07,1.07,0,0,1,.21.5h0a1,1,0,0,0-.21-.49Z"/><path class="cls-1" d="M70.41,19.76a.84.84,0,0,1,.17.34h0a.77.77,0,0,0-.22-.39Z"/><polygon class="cls-1" points="69.86 19.31 69.85 19.31 69.86 19.31 69.86 19.31"/><polygon class="cls-1" points="70.44 19.51 70.44 19.52 70.45 19.47 70.45 19.47 70.44 19.51"/><polygon class="cls-1" points="70.8 19.57 70.8 19.59 70.84 19.5 70.84 19.5 70.8 19.57"/><polygon class="cls-1" points="70.47 19.41 70.45 19.47 70.45 19.47 70.47 19.41 70.47 19.41"/><path class="cls-1" d="M70.11,19.26s0,0,0,0h0a.1.1,0,0,0,0,0h0Z"/><path class="cls-1" d="M70.88,19.43h0l0,0,0,0h0l0,0A.08.08,0,0,1,70.88,19.43Z"/><path class="cls-1" d="M70.48,19.39s0-.15.17-.15h0c-.13,0-.18.15-.18.15v0h0Z"/><path class="cls-1" d="M70.25,19.2h0l-.08,0h0A.12.12,0,0,1,70.25,19.2Z"/><path class="cls-1" d="M71.06,19.31h0c-.09,0-.15.08-.18.12h0A.24.24,0,0,1,71.06,19.31Z"/></svg>